<?xml version="1.0" encoding="UTF-8"?>
<svg id="a" xmlns="http://www.w3.org/2000/svg" viewBox="0 0 412.43 115.1">
    <defs>
        <style>.b{fill:#00a14b;stroke:red;stroke-miterlimit:11.34;stroke-width:3px;}</style>
    </defs>
    <path class="b" d="m1.5,93.75l35.73,6.39v-16.73l-19.01-2.07V30.93l-16.72,1.69v61.12m42.79,7.51l35.41,4.88v-18.9l-18.87-1.56v-11.25l16.54.89v-18.8l-16.54-.1v-11.14l17.61-.4v-18.85l-34.15,2.55v72.69m91.27,4.29v-47.48l-27.08-.15v19.36l10.52.38v12.34c-.89.27-2.28.36-4.17.25-4.05-.23-7.21-2.41-9.46-6.5-2.25-4.07-3.38-9.58-3.38-16.57s1.34-13.04,4.03-17.24c2.69-4.24,6.3-6.42,10.84-6.49,2.76-.04,5.3.27,7.62.95,2.32.68,4.75,1.92,7.28,3.74v-23.08c-5.42-1.95-10.51-2.8-15.29-2.58-6.5.32-12.15,2.42-16.93,6.25-4.79,3.77-8.5,9.07-11.13,15.89-2.64,6.74-3.95,14.38-3.95,22.97,0,12.81,2.61,22.98,7.83,30.6,5.22,7.75,12.63,12.15,22.24,13.05,3.72.32,7.64-.09,11.75-1.25,4.12-1.19,7.21-2.67,9.28-4.43m43.82,7.73l18.34.29-18.19-91.48-20.8.37-19.04,89.13,18,.95,2.63-16.5,16.6.4,2.45,16.83m-10.57-71.29c.21,3.16.58,6.56,1.13,10.18l3.88,24.74-10.63-.14c2.81-17.52,4.38-27.46,4.69-29.78.31-2.32.49-3.99.54-5h.39m35.52,71.6l36.24-.53v-21.42l-19.26.27V21.98l-16.98-.05v91.68m43.37-.78l16.68-.76V22.75l-16.68-.41v90.48m65.61-29.82c0-5.7-1.18-10.59-3.53-14.69-2.36-4.14-6.38-7.96-12.06-11.49-2.88-1.87-4.78-3.4-5.68-4.59-.91-1.19-1.36-2.69-1.36-4.5s.56-3.37,1.68-4.44c1.12-1.07,2.6-1.58,4.44-1.55,4.46.09,9,2.12,13.61,6.07v-21.36c-2.37-1.1-4.21-1.86-5.52-2.28-1.31-.42-2.77-.79-4.38-1.11-1.61-.32-3.37-.52-5.28-.61-6.79-.31-12.21,2-16.25,6.94-4.04,5-6.07,11.8-6.07,20.36,0,12.23,4.43,20.99,13.28,26.2,2.73,1.53,4.6,2.74,5.61,3.63,1.01.89,1.76,1.85,2.26,2.89.5,1.04.75,2.26.75,3.66,0,1.96-.5,3.48-1.49,4.55-1,1.08-2.4,1.67-4.21,1.76-2.4.12-4.99-.57-7.78-2.09-2.79-1.53-5.34-3.62-7.64-6.25v24.25c4.79,2.81,10.06,3.99,15.8,3.55,4.95-.41,9.19-1.81,12.7-4.19,3.52-2.36,6.25-5.7,8.2-10,1.95-4.28,2.92-9.18,2.92-14.73m6.7,24.56l35.37-4.44v-17.81l-18.88,1.61v-11.69l16.55-.9v-17.93l-16.55.1v-11.58l17.62.41v-17.87l-34.11-2.3v82.39m20.01-88.42l13.61-15.65-13.68-1.89-11.42,16.58,11.49.96m51.78,78.12l18.63-3.48-5.26-14.96c-1.24-3.5-2.64-6.12-4.2-7.86-1.56-1.77-3.51-3.01-5.85-3.73v-.18c4.25-1.59,7.45-3.89,9.61-6.9,2.16-2.96,3.24-6.54,3.24-10.8,0-5.67-1.85-10.05-5.56-13.22-3.7-3.26-9.42-5.3-17.15-6.03l-22.04-1.92v73.78l16.57-2.63v-24.51l.65-.05c1.49-.11,2.87.61,4.13,2.16,1.27,1.54,2.3,3.69,3.1,6.47l4.12,13.85m-1.58-45.44c0,2.3-.68,4.22-2.04,5.77-1.36,1.57-3.16,2.38-5.39,2.43l-3,.07v-15.95l3.42.13c2.41.09,4.18.82,5.31,2.17,1.13,1.35,1.7,3.13,1.7,5.38Z"/>
</svg>
