<svg id="logo" xmlns="http://www.w3.org/2000/svg" viewBox="0 0 144.25 135.94">
    <defs>
        <style>.b{fill:#c0272d;}.c{fill:none;stroke:#c0272d;stroke-miterlimit:11.34;}.d{fill:#1f693c;}.e{fill:#209146;}</style>
    </defs>
    <path class="d" d="m104.47,119.22v-.28c-.74-.63.14-1.36-.17-2.05-.19-.41-2.38-.86-2.85-.89v-.28c.26-.47-.36-1.19-.73-1.45-1.06-.75-2.06-.65-2.28-1.96l-.2-.1c-.9-.45-1.75-1.13-2.72-1.43-1.23-.38-2.52-.33-3.7-.9-.56-.27-.3-.94-.68-1.31-.68-.67-2.8-1.18-3.76-1.2v-.28c.66-.88-.68-1.4-1.31-1.73-1.16-.6-2.43-.27-3.61-.62"/>
    <path class="d" d="m84.98,103.75l-.44-.07-1.78.55.1.1h.2c.07.14,1.77-1.05,2.58-.73.69-.08,1.35.39,2.05.34.62-.05,1.21-.37,1.81-.51.71-.16,1.62-.2,2.28-.48.54-.23.57-1.02,1.25-1.22.58-.17,1.75.04,2.41.04,1.16,0,2.25-.25,3.32-.63,1.19-.42,2.62-.8,3.72-1.38.41-.21,1-.36,1.11-.83l4.63-1.78,2.41-.34,2.17-.74.67-.97.99-.11,3.82-1.08v-.28c.04-.95,1.06-1.06,1.81-1.37.58-.23.94-.71,1.51-.93.99-.38,1.98-.27,2.72-1.12l-.1-.19-.1-.1c-.1-.56.46-.56.91-.65.84-.18,2.1-.36,1.81-1.43l.2-.09c.93-.19,2.17-.33,2.82-1.04l-.1-.19-.1-.09c.33-.77,1.93-1.14,2.72-1.33l-.1-.19c-.09-.41.22-.66.6-.81,1.05-.41,2.02-.53,3.02-1.09l-.1-.09-.5-.28,3.02-1.39,4.13-3.07-4.93.5-1.21.26-.3-.09-2.21.47h-.2c-.94.35-1.54,1.3-2.52,1.62-.61.2-1.17-.28-1.71-.1-.58.19-1.05.73-1.71.68-.54-.04-.81-.71-1.42-.74-.89-.04-1.97,2.35-2.21.43h-.3c-.32-.6-1.27.16-1.59.42-.55.45-1.23.66-1.81,1.07-.35.25-.68.67-1.13.76-.74.14-1.52-.35-2.31-.33-.51.01-1.27.47-1.68.75-.34.23-.33.74-.84.79-.84.08-1.7-1.07-2.41-.77-.91.38-1.45,1.36-2.41,1.72-.71.26-1.72-.09-2.52.18-.76.25-1.38,1.13-2.12,1.28-.68.14-1.08-.47-1.8-.13-.82.39-1.85.77-2.59,1.28-1.13.78-2.07,1.81-3.29,2.48-.53.29-1.06-.25-1.57-.11-1.03.28-2.86,1.46-3.32,2.39l-.2-.1-.4-.09-.1-.28h-.2c-1.25.01-2.75.86-3.58,1.72-.49.51-.95,1.35-1.57,1.72-.78.47-1.56-.18-2.2.73v-.19c.77-.68,1.86-.9,2.72-1.5.62-.43,1.02-1.05,1.56-1.55.68-.63,1.49-1.15,2.15-1.8.7-.7-.1-1.57.75-2.28.37-.3.77-.3,1.15-.53,1.29-.76,2.89-1.52,3.92-2.6.88-.92,1.49-2.01,2.29-2.93.82-.94,1.69-1.71,2.38-2.76.39-.59.43-1.44.85-1.98.6-.77,1.59-1.39,2.29-2.12.37-.39.44-.92.79-1.3.59-.64,1.52-1.04,2.19-1.63.95-.84,1.69-1.87,2.62-2.74l-.1-.19c0-.32-.21-.74-.08-1.04.19-.45.8-.58,1.14-.89,1.12-1.03,3.45-2.68,3.27-4.23h-.3c.04-.99.97-1.74,1.57-2.47.23-.28.64-.71.34-1.04l.1-.09v-.09c1.19-1.1,2.7-2.13,2.72-3.8l-.2.09c-1.05-.4.88-1.6,1.23-1.99.36-.39.72-.87.74-1.41.01-.3-.41-.47-.27-.76.51-1.11,2.79-1.71,2.23-3.23h-.3l-.1-.09c.09-.87,1.47-2.36,2.21-2.85l-.1-.28h-.2c-.27-1.33,1-1.89,1.89-2.79.44-.44.66-1.03.93-1.57h-.81c.18-1.18,1.54-2.19,2.2-3.15.74-1.06,1.03-2.52,1.54-3.68.33-.76.96-1.74.99-2.56h-.3c-1.57,1.01-3.3,2.15-4.62,3.44-.55.55-.46,1.68-1.42,1.87v-.76l-.2.09c-1.19.52-.86,2.11-2.11,2.66l-.1-.19.1-.66-.1.09h-.1c-.98.89-.86,2.55-1.92,3.5-.52.47-1.39.43-1.81.83-.64.61-.77,1.58-1.71,1.93-.64.24-1.56-.43-2.16.06-.66.56-.15,2.01-.88,2.41-.62.34-1.28-1.08-2.13-.41-.45.35-.51.88-.72,1.36-.29.67-.79,1.25-1.11,1.91-.3.64-.43,1.46-.99,1.96-.86.75-2.16.29-3.04,1.13-.43.41-.96,1.4-1.17,1.95-.21.57.03.95-.62,1.35-.84.51-2.18-.15-2.9.39-1.01.77-.64,2.75-1.55,3.64-.25.24-.64.12-.95.23-.71.24-1.27.62-1.76,1.16-.41.45-.81,1.12-1.02,1.68-.15.39-.17.94-.51,1.23-.57.49-1.44.19-1.96.74-2.21,2.35-2.64,5.35-4.21,7.99-.46.78-1.68.48-2.06,1.24-.47.93-1.14,1.79-1.52,2.76-.35.89-.22,1.82-1.35,2.17l-.2.28c-.81-.38-1.51.35-1.84.95-.78,1.42-.9,2.88-1.07,4.46-.03.27.05,2.08-.45,1.66-1.05-.88-.55-2.16-.39-3.28.11-.75-.03-1.66.19-2.37.59-1.85,1.75-3.4,1.75-5.41,0-1.08-.38-3.69-1.81-3.89l.1-.19c.99-2.36,2.23-4.34,2.41-6.93.1-1.44-.85-2.54-1.01-3.89-.12-1.01.54-2.38.66-3.42.08-.65-.38-1.19-.33-1.8.06-.75.67-1.55.9-2.28.32-1.02.16-2.01.26-3.04.04-.45.3-.87.29-1.32,0-.87-1.39-.99-1.35-1.9.02-.4.45-.65.53-1.05.11-.61.06-1.26.18-1.89.2-1.06.66-2.23.51-3.32-.11-.78-1.35-1.14-1.66-1.99-.36-1.01.13-2.42-.08-3.51l-.4-.28.56-3.99-.86-1.42-.1.09h-.1c-.39.19-.88.02-.86-.47.05-1.3.77-2.34.28-3.71-.21-.6-1.16-.36-1.18-1.05-.04-1.4,1.24-3.15-.15-4.27l-.2.19-.3-.09-.2-4.37-.1.09h-.1c-.69.17-.82-.76-.87-1.23-.14-1.38,1.09-2.7.17-4.08l-.2.19-.4.19c-.9-1.25-.17-2.92-.26-4.28-.17-2.44-1.79-4.73-1.85-7.2h-.2l-.1.19c-.37,2.03-1.79,3.93-2.19,5.99-.13.7.78,1.67.27,2.31-.27.34-.61-.36-.7-.53l-.2.09v3.89h-.3l-.3-.66-.2.19.74,3.89-1.21,2.19.12,1.7-.46,1.42h-.1c-.27.14-.54.29-.8.46-.97.66-.95,1.41-.43,2.38.18.33.58.74.53,1.13-.11.83-2,.15-2.11,1.43-.12,1.5.56,3.35.81,4.84.09.56.36,1.03.22,1.61-.3,1.25-1.59,2.06-1.69,3.42-.05.68.1,1.79.28,2.45.13.48.67.56.49,1.16-.35,1.18-1.96,2.02-2.16,3.13-.23,1.24,1.02,2.8,1.09,4.08.02.39-.4.61-.52.96-.29.78-.52,1.54-.62,2.37-.11.91.16,1.93.3,2.84.05.31.32.54.29.86-.06.65-.62,1.06-.89,1.61-.25.51-.21,1.43-.21,1.99-.02,2.97,1.49,5.57,1.76,8.45.08.85-.7,1.41-.82,2.18-.14.89.41,1.56.34,2.46l.06.23.07.15.8,3.04-.2.09c-1.83,1.19-1.09,4.61-.43,6.36.23.61.81,1.15.92,1.8.07.44-.38,1.02-.39,1.52l-.1-.09h-.1c-.93-.85-.71-2.04-.82-3.23-.16-1.82-1.45-4.26-3.51-4.27v-.28c-.08-1.23-.68-3.39-1.58-4.32-.44-.45-1.15-.53-1.5-1.09-.79-1.26-.87-2.88-1.33-4.27-.38-1.14-1.18-2.39-1.82-3.41-.41-.66-1.28-.67-1.79-1.25-.66-.75-.69-2.08-1.32-2.93-.65-.87-1.69-1.2-2.35-1.93-.74-.81-1.17-2.81-1.29-3.86h-.3c-1.02-.45-2.51-.61-3.14-1.61-.19-.31,0-.62-.09-.95-.18-.61-.77-1.69-1.24-2.13-.98-.93-2.67-1.15-3.36-2.33-.95-1.61-1.34-3.88-2.62-5.29-.78-.87-1.78.34-2.4-.18-.66-.54-.15-1.91-.88-2.56-.65-.58-1.62-.05-2.3-.41-1-.53-1.09-1.57-1.85-2.23-.51-.45-1.38-.4-1.94-.92-1.11-1.02-.99-2.64-2.02-3.69l-.1.28.1.47-.2.09-2.01-2.75-.2.09-1.33-1.18-4.4-2.9-.2.09.1.09c.06.87.51,1.73.74,2.56.28.98.41,2.11.91,3.02.59,1.08,2.01,1.91,1.87,3.24h-.3l-.4-.38-.1.09v.19c.2.41.33.92.65,1.26.93.98,2.51,1.57,1.97,3.01l-.2-.09-.2.09v.09c.57.85,1.36,1.56,2,2.37.22.29.55.92-.09.95l-.2.19c0,1.7,1.71,2.15,2.54,3.44.22.35-.35.55-.44.84-.09.28.08.67.18.94.38,1.01,1.63,1.58,2.31,2.39.42.5-.2.75-.66.65l.06,1.52,2.23,2.21.63,1.21c-.27,1.17,1.64,2.17,1.9,3.23.19.78-.68,1.39-.38,2.09.44,1.02,1.62,1.87,2.4,2.66.4.4.65.92,1.05,1.3.33.31.87.32,1.12.73.3.51-.49,1.18-.36,1.76.1.42.61.72.89,1.04.51.59.81,1.31,1.36,1.89.61.64,1.53,1.01,2.12,1.65.31.34.24.81.42,1.2.2.43.6.76.89,1.14.74.95,1.47,1.21,1.37,2.47l.2.09v.19c0,1.63,1.36,2.56,2.07,3.89.17.32.09.67.22.99.24.58,1.05,1.78,1.54,2.21.96.83,2.61,1.29,3.31,2.31l.2-.09c1.99.27.25,2.01,1.02,2.85,1.27,1.36,2.85,2.89,4.31,4.06.32.26.75.35,1.06.63.83.75,1.33,1.88,2.26,2.52l-.2.19c-.87-1.67-3.71-2.56-5.53-2.56v.28l-.8.1c-.64-.74-1.81-1.03-2.72-1.38-.32-.12-.65-.38-1.01-.38-.4,0-.72.27-1.11.31-.35.04-1.04-.3-1.36-.46-2-.96-3.58-2.23-5.88-2.67-.59-.11-.92.47-1.5.44-.77-.04-1.61-.91-2.43-1.05-.84-.14-1.79.41-2.52.27-1.06-.21-1.82-1.44-2.92-1.48-.78-.03-1.3,1.04-2.21,1.05-.38,0-.55-.36-.83-.55-.4-.27-1.21-.53-1.69-.61-.96-.16-1.55.73-2.42.68-.5-.03-.96-.45-1.4-.64-1.07-.47-2.19-.88-3.22-1.41l-.2.19c-.35.24-.35,1.07-.8,1.1-.3.02-.56-.37-.77-.53-.72-.57-1.25-.69-1.94-.05-.17.16-.27.31-.32.53h-.3l-2.01-.53-1.81.35-2.62-1.05.1.28-2.72-.66.1.09v.09l.2.38-.1.09h-.1l-1.41-.64-5.13-.03.1.19c1.43.87,3.1,1.96,4.67,2.58.87.34,1.93.32,2.77.77.36.19.28.47-.09.54l.2.09c.76.61,3.87.27,3.62,1.52l.3.1c.71.19,1.69.25,2.3.66.38.26.15.81.63.99.97.36,2.8-.15,2.81,1.2h.3c.77.52,1.57.3,2.41.52.32.08.46.31.2.53v.28c.92.86,2.17.45,3.32.86.28.1.44.35.72.45.66.24,1.5.23,2.1.61.42.26.47.87.92,1.04,1.39.54,3.19.21,4.62.53.58.13.5.81,1.01.93,2.82.65,5.71.64,8.55,1.2.72.14,1.33.75,2.01.99.86.31,1.75.28,2.62.52.84.23,1.62.59,2.52.72,1.37.2,2.94,0,4.31-.11.35-.03.64-.26,1.01-.19.66.11.72.8,1.24.95.7.21,1.48.11,2.2.14.62.03,1.18.35,1.81.37.86.03,1.66-.26,2.52-.3.97-.04,1.74.31,2.72.02l-.1-.1-1.81-.28c.74-.06,1.71-.65,2.27-1.1.24-.19.44-.63.76-.7.65-.14,1.46.44,2.1.57l-.1.1h-.1c-.66.44-1.23.47-2.01.47l-.3,1.14c-.77.32-1.8.05-2.5.45-.49.28-.3,1.04-.94,1.21-1.09.29-2.32.02-3.4.51-.71.32-2.41,1.03-1.41,1.91l-.3.19c-1.06.06-2.67.48-3.49,1.13-.33.26-.19.72-.42,1.03-.46.64-2.08,1-2.83.77v.19c-1.18,0-3.08.85-3.89,1.65-.37.36.04.99-.46,1.29-.67.39-1.55.28-2.16.89-.41.41-.55,1.51-.95,1.74-.68.39-1.88.17-2.44.68-.46.42.22,1.44-.07,1.99-.24.46-.58.23-1,.29-.36.05-.99.41-1.25.65-.58.54-.09,1.36-.52,1.92-.64.83-2.47.68-3.2,1.48-.48.53.47,1.18.17,1.52-.23.25-.73.11-1.03.22-.68.25-.3,1.15-.21,1.64l-1.1.91-.63,1.15-1.49.79.1.19-.91,1.33.1.19v.1c-1.01.75-1.6,1.93-2.11,3.04h.2c.89-.66,1.97-1.08,2.92-1.65.33-.2.78-.53,1.01-.06h.3c.58-.31,1.1-.98,1.71-1.18.49-.16.79.3,1.31.01.47-.26,1.41-1.17,1.81-.35h.3c.75-.03,1.3-.67,1.91-1.01.4-.22.85.18,1.31.07.6-.14,2.2-1.81,2.31-.68h.3c1.07,0,1.48-.63,2.31-1.17.45-.29.93-.27,1.41-.48.52-.22.98-.64,1.51-.82.6-.2,1.01.41,1.61.18,1.23-.48,2.02-1.77,3.05-2.48.47-.33,1.06.19,1.58-.13,1.24-.75,1.98-1.71,2.99-2.66.26-.24.63-.2.92-.38.6-.38,1-.99,1.55-1.39.43-.31,1.18-.18,1.68-.43,1.23-.6,2.55-1.57,3.61-2.42.88-.71.9-2.08,1.73-2.71v-.28c-.08-.37.19-.72.6-.79.32-.05.57.26.88.15.43-.14.64-.75.87-1.08.33-.47.93-.93,1.17-1.43.31-.65.19-1.42.5-2.08l.1.1v.19c0,5.04-.88,10.51-3.25,15.09-.6,1.16-1.22,2.35-1.99,3.42-.71.98-1.73,2.16-1.11,3.42.56,1.13,1.8,1.38,2.83.67,1.33-.92,2.47-2.7,3.19-4.09.61-1.18,1.28-2.43,1.64-3.7.19-.65.42-1.32.62-1.96.27-.9.47-1.76.68-2.69.71-3.13.81-6.4.81-9.58l1.95,2.41,1.57,1.01h.3c.15,2.07,1.81,2.73,3.32,3.77.65.44,1.07.98,1.81,1.31.47.21,1.05.12,1.49.35.99.52,1.21,1.59,2.53,1.6v.28c1.09.85,1.86,1.97,3.15,2.66.47.25,1.02-.23,1.45.07,1.03.74,1.78,1.87,3.02,2.44.62.29,1.08-.35,1.74-.03.82.39,1.79.65,2.54,1.04,1.03.53,1.53,1.22,2.79,1.22v-.28c.81-.33,1.33.63,2.01.95.59.27,1.13-.2,1.61,0,.86.34,1.3,1.05,2.31,1.05v-.28c.77-.25,1.27.4,1.91.7.48.23.84-.26,1.31-.07.82.33,1,1.16,2.01,1.17l-.1-.19.2-.19,3.82,2.18v-.19l-1.81-3.32-1.01-1.42-1.43-.78-.64-1.25-.93-.94.09-1.49h-.3c-.29-.07-1.05,0-1.17-.31-.19-.46.86-1,.24-1.52-.82-.68-2.45-.56-3.15-1.31-.37-.39-.17-.95-.29-1.41-.24-.9-1.39-1.31-2.25-1.04"/>
    <path class="e" d="m73.88,3.54l-.1,3.99.2,1.9.1-.09h.1c.14-.71.81-1.29.97-1.99.14-.62-.24-1.39-.37-1.99-.1-.48-.18-1.27-.8-1.33l-.1-.47Z"/>
    <path class="e" d="m73.08,9.04l-.1.19.1.57.1-.09c.55-1.44.17-2.98.2-4.46,0-.22.31-1.58-.29-1.39-.39.13-.62.87-.75,1.2-.18.46-.55,1.11-.44,1.61.08.35.41.58.48.95.1.47.19,1.18.69,1.42Z"/>
    <path class="e" d="m74.81,9.63c-1,.42-1.13,1.97-1.13,2.83,0,.32.04,1.22.61,1.03,1.44-.47,1-1.66,1-2.74,0-.26.11-1.37-.48-1.12Z"/>
    <path class="e" d="m71.7,10.17c-.34.11-.24.7-.22.96.06.82.37,1.53.88,2.18.16.21.45.64.79.51.31-.12.1-.74.12-.98.04-.71-.26-3.07-1.57-2.66Z"/>
    <path class="e" d="m74.28,18.15l.1-.09c1.47-.62,1.66-2.17,1.93-3.51.07-.33.29-1.39-.15-1.55-.37-.14-1.02.53-1.28.73-1.18.91-1.43,3.21-.6,4.42Z"/>
    <path class="e" d="m72.98,18.15l.1-.09h.1c0-1.59.23-2.46-.8-3.8-.25-.33-.59-1.14-1.18-.97-.46.14-.17,1.06-.09,1.35.35,1.34.77,2.56,1.87,3.51Z"/>
    <path class="e" d="m70.82,17.69c-.26.16-.18.77-.27,1.03-.44,1.29-.46,2.71.63,3.73.35.32.99,1.13,1.56.81.43-.24.33-.91.33-1.31,0-1.29,0-2.21-.77-3.32-.24-.35-.88-1.31-1.48-.94Z"/>
    <path class="e" d="m76.4,17.68l-.1.09h-.1c-.58.51-1.48.76-1.95,1.36-.6.75-.11,2.76-.17,3.67-.03.37-.25,1,.32,1.1.67.12,1.39-.58,1.77-1.01,1.27-1.44,1.18-3.73.23-5.22Z"/>
    <path class="e" d="m69.66,22.42c-1,.24-1.03,1.05-.84,1.9.35,1.52,1.49,2.59,2.58,3.7.42.43,1.48.94,1.73.07.15-.53-.12-1.23-.15-1.78-.04-.67-.21-1.36-.73-1.85-.77-.73-1.96-1.18-2.59-2.04Z"/>
    <path class="e" d="m74.18,28.4l.1-.09c1.87-.64,3.03-2.02,3.54-3.8.13-.44.73-1.43.15-1.79-.73-.45-1.49.71-1.9,1.11-.51.5-1.25.74-1.75,1.26-.96,1.01-.29,2.21-.15,3.3Z"/>
    <path class="e" d="m67.34,26.88v.19c.26,1.17.75,2.12,1.37,3.13l1.27,2.28c.46.83,2.55,3.31,3.12,1.25.15-.54-.06-1.2-.18-1.72-.13-.57,0-1.16-.28-1.71-.47-.89-1.7-1.5-2.48-2.13-1.07-.86-1.35-1.63-2.82-1.29Z"/>
    <path class="e" d="m73.98,34.66l.1-.09c1.94-1.29,4.06-3.12,4.64-5.31.18-.68.68-1.86-.13-2.36-.93-.58-1.76.55-2.39,1.04-.65.49-1.56,1.1-1.95,1.8-.42.74-.19,1.42-.16,2.18.04.9-.1,1.84-.1,2.75Z"/>
    <path class="e" d="m68.45,31.34v.28c-.24.7-.6,2.13-.33,2.83.34.92,1.45,1.71,2.07,2.49.51.63,1.42,1.82,2.29,1.99v-.19c.53-.29.28-1.15.18-1.61-.36-1.74-1.96-2.44-2.82-3.99-.28-.5-.75-1.67-1.39-1.8Z"/>
    <path class="e" d="m78.91,31.78c-1.52.41-2.75,2.06-3.82,3.07-.45.42-.99.9-1.09,1.52-.12.79-.42,2.26.1,2.94.18.23.51.68.87.6.59-.13,1.15-.87,1.56-1.26,1.31-1.27,2.99-2.83,3.73-4.46.47-1.04.32-2.87-1.36-2.41Z"/>
    <path class="e" d="m66.44,35.14v.28c.11.37-.1.84-.1,1.23,0,.9.09,1.8.4,2.66.94,2.69,3.36,4.48,5.14,6.64h.2c.52-.45.4-1.19.52-1.8.59-2.9-1.19-5.14-3.2-7.12-.7-.69-1.8-2.37-2.96-1.89Z"/>
    <path class="e" d="m79.42,36.82c-.55.18-.94.82-1.31,1.22-.88.95-1.71,1.89-2.72,2.72-.38.32-1.19.84-1.32,1.3-.25.89-.28,2.11-.27,3.03,0,.33.27.78.69.69.54-.12,1.19-.85,1.61-1.19,1.34-1.1,3.54-2.67,4.05-4.34.25-.81.3-2.02.16-2.85-.07-.4-.43-.74-.88-.59Z"/>
    <path class="e" d="m73.48,52.6h.3c1.54-.55,3.04-1.46,4.34-2.4.44-.31,1.19-.65,1.49-1.07.85-1.17,1.13-2.86,1.46-4.22.22-.92.79-2.3.45-3.23-2.27.61-4.12,3.09-5.84,4.54-.54.46-1.83,1.01-2.1,1.64-.63,1.44-.13,3.23-.11,4.73Z"/>
    <path class="e" d="m65.73,42.73h-.2c-.84,1.49-.07,2.9.57,4.37.61,1.38,1,2.65,2.24,3.68.63.53,2.67,1.9,3.48,1.2.56-.48.28-1.41.39-2.04.16-.93.3-1.88-.2-2.75-.62-1.07-2.09-1.82-2.94-2.75-.77-.85-1.09-1.79-2.13-2.45-.66-.42-1.39,0-1.21.75Z"/>
    <path class="e" d="m65.74,48.99c-.9.27-.45,2.2-.54,2.85-.36,2.69,1.34,5.33,3.45,6.96.49.38,1.7,1.51,2.41,1.33.63-.17.65-1.7.75-2.21.28-1.38.52-3.4-.62-4.51-1.19-.48-2.23-1.29-3.12-2.2-.51-.51-1.33-1.02-1.67-1.64-.13-.24-.28-.68-.65-.57Z"/>
    <path class="e" d="m80.92,49.7c-.76.13-1.47.81-2.11,1.19-1.87,1.12-4.94,2.43-5.57,4.55-.36,1.22-.4,2.92-.21,4.18.11.72.13,1.43,1.15,1.31.89-.11,1.47-.77,2.11-1.28,1.15-.91,2.11-1.94,3.13-2.95.73-.73,1.5-1.35,1.7-2.38.23-1.16.6-2.33.6-3.51,0-.51-.08-1.22-.81-1.09Z"/>
    <path class="e" d="m65.03,57.15l-.1.19c-.55.96.09,2.42.28,3.42.31,1.63.81,3.59,1.7,5.03.66,1.07,1.59,1.88,2.44,2.8.58.61,1.12,1.68,1.91,2.05l.1-.28c.35-.61.19-1.41.23-2.09.1-1.79,1-4.78-.44-6.26-.87-.89-2.16-1.85-3.22-2.56-.66-.44-1.47-.67-1.8-1.43h-.3l-.8-.85Z"/>
    <path class="e" d="m80.62,57.53c-1.89.55-3.28,2.7-4.83,3.75-.9.61-2.17.74-2.6,1.85-.4,1.04.16,2.49.08,3.61l-.09,2.94c0,.35-.05.83.32,1.04.27.15.62.04.78-.2.63-.95,1.14-1.9,1.85-2.83,1.64-2.14,4.12-3.79,4.65-6.55.24-1.23-.17-2.38-.17-3.61Z"/>
    <path class="e" d="m81.03,63.8h-.1c-.91.38-1.89,2.06-2.49,2.84-1.78,2.31-4.76,4.27-5.36,7.13-.21,1.02-.46,2.43,0,3.42.13.27.19.77.52.89.47.17.89-.24,1.19-.51,2.94-2.7,5.05-6.32,6.11-10.15.32-1.16.73-2.48.13-3.61Z"/>
    <path class="e" d="m71.06,78.13l.2-.19c.58-1.06.23-1.82.19-2.94-.05-1.15.32-2.3-.2-3.42-.4-.86-1.67-1.73-2.41-2.36-.51-.43-1.72-1.88-2.5-1.74-1.08.2-.55,2.51-.45,3.14.32,2.03,1.11,4.19,2.67,5.68.78.75,1.69,1.14,2.49,1.82Z"/>
    <path class="e" d="m79.23,73.96c-.45.22-.7.78-1.04,1.13-1.22,1.24-2.21,2.63-3.61,3.69-.52.4-1.6.95-1.7,1.63-.23,1.7-.02,3.52-.09,5.22-.02.5.35.85.88.66,2.73-.97,4.32-3.69,5.47-5.98.37-.74,1.06-1.26,1.23-2.09.2-1,.15-2.45-.17-3.42-.13-.38-.39-1.14-.97-.85Z"/>
    <path class="e" d="m65.53,75.56v.19c0,1.44.09,2.82.65,4.18.39.96.87,1.89,1.46,2.75.65.96,1.6,1.55,2.46,2.32.33.29.83.84,1.32.46.45-.36-.03-.92-.05-1.35-.08-1.33.25-2.56-.13-3.87-.31-1.08-2.08-2.19-2.89-2.96-.89-.84-1.47-2.08-2.82-1.71Z"/>
    <path class="e" d="m78.22,83.52c-.44.12-.98,1.01-1.28,1.34-.71.78-1.63,1.32-2.56,1.86-.56.32-1.17.52-1.35,1.18-.24.87-.4,2.27-.13,3.13.17.54.5,1.04,1.18.9,2.46-.51,4-3.56,4.54-5.64.12-.45.54-3.02-.4-2.76Z"/>
    <path class="e" d="m67.64,84.29v.28c-1.19.11-.41,1.64-.2,2.28.57,1.77,1.64,4.2,3.82,4.56v-.28c.06-.49.38-.93.39-1.42.05-2.45-1.67-4.45-4.02-5.41Z"/>
    <path class="e" d="m19.45,26.88l-.1.09-.1.28c.3.89.41,2.36,1.08,3.07.61.65,1.58.82,2.44.91l.1-.19-.4-.47.1-.19c0-1.72-1.74-2.68-3.12-3.51Z"/>
    <path class="e" d="m23.57,32.2l-.2-.09-2.21-.47v.28c.1.62.78,1.02,1.31,1.33l-.1.19-.1.09c-.58.68,1.3.66,1.61.66v-.28l.3-.57.6.09v-.28l-.5-2.37h-.2c-.57.12-.42.98-.5,1.42Z"/>
    <path class="e" d="m25.79,32.86l-.2,2.94c-.46-.67-2.48-1.23-3.32-1.04l.1.09v.09c.48,1.04,1.64,2.39,2.81,2.69.33.08.77.59,1.11.19.25-.3-.04-.92-.1-1.26h.2c.14.34.95,1,1.17.37.38-1.12-.34-2.04-.79-3.03-.23-.52-.28-1.01-.98-1.04Z"/>
    <path class="e" d="m28.7,35.8l-.3.76c-.88.35-.52,1.1-.14,1.71.61.98,1.53,2.44,2.96,2.28v-.19c.09-.33.18-.7.11-1.04-.08-.39-.44-.68-.66-1.01-.49-.73-.86-2.41-1.96-2.51Z"/>
    <path class="e" d="m24.38,38.65l.1.09v.09c.85,1.32,1.64,2.84,3.12,3.6.47.24,1.45.69,1.81.1l.2.09.7.19v-.28l-.91-2.18h-.3l-1.81-1.58-2.92-.13Z"/>
    <path class="e" d="m32.13,38.93l-.1,1.71c-.8.11-.7.79-.42,1.33.43.84.63,1.72,1.12,2.56.21.35.56,1.01,1.1.88.91-.22.6-1.71.61-2.3.02-.92.04-3.38-.87-3.98-.32-.21-1.06-.15-1.45-.19Z"/>
    <path class="e" d="m37.46,49.75l.2-.09c.07-.76.37-1.5.37-2.28,0-.69-.22-1.39-.26-2.09-.04-.63.14-1.17-.05-1.8-.14-.44-.31-1.22-.64-1.56-.49-.48-1.43.12-1.59.61-.44,1.28-.95,3.71-.31,4.93.37.72.72,1.64,1.26,2.25.3.34.8.52,1.03.03Z"/>
    <path class="e" d="m26.59,43.01l.1.19c.75,2.76,3.61,2.05,5.74,2.75v-.19l-.7-.66v-.19c-.52-1.52-1.8-1.34-3.22-1.54-.64-.09-1.26-.32-1.91-.35Z"/>
    <path class="e" d="m39.27,46.34v.28c-.05,1.75-1.33,3.91-.56,5.6.31.68.59,1.42,1.47,1.52v-.28c.47-1.64.46-3.09.23-4.74-.11-.83-.38-1.85-1.14-2.37Z"/>
    <path class="e" d="m28,46.62l.1.19c.14.98,1.08,1.74,1.91,2.24,1.84,1.12,4.08,1.54,6.24,1.93v-.09c-.28-.8-1.02-1.49-1.51-2.18-.25-.36-.43-.82-.81-1.07-.83-.56-1.67-.48-2.61-.61-1.26-.18-2.04-.48-3.32-.4Z"/>
    <path class="e" d="m44.1,59.15v-.19c.17-1.43.58-2.83.6-4.27.02-.95.02-1.91-.16-2.85-.22-1.11-.78-2.27-1.58-3.1-.23-.24-.7-.88-1.09-.52-.51.48-.43,1.59-.53,2.21-.39,2.39-.66,4.48.65,6.64.45.73,1.11,2.06,2.11,2.09Z"/>
    <path class="e" d="m30.01,50.99v.19c.69,2.44,3.7,3.17,6.04,3.97.49.17,2.21.85,2.63.44.78-.77-.38-2.35-1.05-2.83-.58-.41-2.06-.48-2.79-.61-1.68-.31-3.08-1.38-4.83-1.16Z"/>
    <path class="e" d="m46.61,53.36v.28c-1.43.26-.87,1.42-1.04,2.47-.33,2.04-.75,3.98.34,5.89.37.65.6,1.49,1.5,1.51v-.28c1.22-2.87,2.45-6.03.56-9.01-.26-.41-.83-.51-1.17-.86h-.2Z"/>
    <path class="e" d="m42.39,59.62l-.1-.19c-.22-.52-.66-1.21-1.31-1.23v-.19c-.76-1.55-2.3-1.27-3.72-1.75-.7-.24-1.43-.76-2.11-1.08-.65-.3-1.55-.74-2.01.1-.42.77.9,2.33,1.51,2.71.94.58,2.09.8,3.12,1.15,1.46.95,3.04.48,4.63.48Z"/>
    <path class="e" d="m49.83,58.48v.28c.07,1.12-.21,2.63-.65,3.7-.25.62-.89,1.46-.95,2.09-.18,1.82,1.41,3.57,2.81,4.65l.1-.09c.76-.3,1.01-1.61,1.24-2.28.79-2.32.7-4.63-.71-6.73-.45-.67-.91-1.59-1.84-1.62Z"/>
    <path class="e" d="m34.14,59.81l.1.19c.34.87,1.24,1.55,1.91,2.18.96.91,2.32,2.34,3.63,2.79,1.95.67,4.34.06,6.33.06v-.19c-.61-1.12-1.21-2.68-2.33-3.45-.54-.37-1.56-.24-2.2-.4-2.42-.6-4.93-1.12-7.45-1.18Z"/>
    <path class="e" d="m55.67,76.8l.2-.09.1-.09c.02-2.1,1.18-4.14.97-6.26-.22-2.32-1.98-4.42-1.98-6.74h-.1c-.87.26-.64,1.92-.98,2.56-.64,1.19-1.47,2.93-1.53,4.27-.08,1.68,1.2,3.5,2.13,4.84.37.54.66,1.1,1.19,1.52Z"/>
    <path class="e" d="m38.97,65.93c-1.45.24.53,2.28,1,2.61,1.01.69,2.05,1.61,3.22,2.05,1.03.38,2.01.35,3.06.53.66.12,1.81.59,2.46.39.61-.18.98-1.1.89-1.64-.14-.94-1.42-2.32-2.21-2.87-.83-.57-1.56-.91-2.61-.82-1.34.39-2.62-.03-4.02.02-.62.02-1.19-.38-1.81-.27Z"/>
    <path class="e" d="m42.89,71.77l.1.19c.29,1.11,1.32,1.77,2.21,2.45,2.51,1.91,5.48,2.3,8.55,3.06v-.19l-2.92-4.74-3.52.11-4.43-.87Z"/>
    <path class="e" d="m58.19,72.53v.28c-.92.46-.63,2.21-.72,3.04-.09.85-.91,1.47-1,2.28-.05.49.55,1.14.83,1.52.4.52.49,1.18.88,1.69.21.28.56.36.81.59l.1-.09h.1c.25-.81.75-1.42,1.02-2.18.5-1.43.6-3.38.23-4.84-.27-1.05-.96-2.26-2.25-2.28Z"/>
    <path class="e" d="m45.31,76.51v.28l.8,1.61h.2c.23.68.94,1.2,1.51,1.63,1.57,1.19,3.74,2.32,5.74,2.68.91.16,2.39.52,2.95-.42.44-.74-.93-1.33-1.11-1.91-.28-.92-.76-.71-1.5-1.21-1.29-.88-2.74-1.02-4.26-1.36-1.04-.23-1.93-.63-3.02-.74-.51-.05-.79-.52-1.31-.57Z"/>
    <path class="e" d="m62.31,86.95l.1-.09c.65-2.14,1.18-4.18.88-6.45-.07-.51-.04-1.89-.78-1.97-.73-.07-1.03,1.58-1.28,2.06-.44.85-1.12,1.61-1.27,2.56-.23,1.56,1.49,2.83,2.35,3.89Z"/>
    <path class="e" d="m53.96,86.19h.3c1.54.92,3.37.7,5.03,1.04v-.19c.91-.72-1.01-2.05-1.61-2.35-1.65-.84-3.76-.93-5.53-1.49-1.04-.33-1.75-.99-2.72-1.43-.4-.18-1.36-.11-1.09.53.39.94,2.54,1.92,3.51,2.22.86.27,1.97.71,2.11,1.67Z"/>
    <path class="e" d="m65.33,91.22l.1-.1c1.53-1.08,1.48-3.59.84-5.12-.14-.33-.15-1.13-.56-1.26-.87-.29-1.66.97-1.89,1.55-.56,1.44-.79,2.47.27,3.79.35.44.91.69,1.24,1.15Z"/>
    <path class="e" d="m54.06,88v.28c.3,1.45,1.64,2.17,2.9,2.84,1.51.8,2.93,1.83,4.74,1.78.71-.02,1.04-.6,1.71-.73v-.19c-.03-.94-.89-1.28-1.5-1.9-.35-.36-.56-.95-1.03-1.19-.6-.31-1.19.09-1.8-.03-.78-.16-1.43-.66-2.21-.82-.85-.18-1.94-.04-2.82-.05Z"/>
    <path class="e" d="m68.75,95.4l.2-.1.1-.09c.49-.68,1.28-2.08.99-2.94-.29-.87-1.19-1.51-1.5-2.37h-.2c-.55.16-.47.81-.67,1.23-.21.45-.84.83-.9,1.34-.1.94,1.34,2.33,1.97,2.93Z"/>
    <path class="e" d="m58.79,93.4l.1.1v.1c.46.48,1.07.72,1.59,1.12.37.29.37.79.74,1.08.79.61,2.6,1.12,3.6,1.27.61.09,2.2.3,2.49-.34.35-.77-.87-1.98-1.48-2.41-.25-.18-.71-.56-1-.34l-.4-.19-.7.28c-1.77.1-3.22-.32-4.93-.66Z"/>
    <path class="e" d="m70.66,93.78v.28c-.16.54-.58,1.34-.53,1.89.06.56,1.41,1.2,1.94,1.24v-.28l-.42-2.35-.99-.78Z"/>
    <path class="e" d="m125.3,38.55l-.1.09h-.1l-.2.66.2-.09c2.4,0,3.3-2.72,3.82-4.56h-.2c-.41-.09-.82.5-1.12.7-.98.66-2.81,1.81-2.3,3.19Z"/>
    <path class="e" d="m123.49,38.84v.28c-.53.69-.6,1.65-.6,2.47h.3l.2-.09.1.09v.76h.3c.31,0,2.06-.32,1.11-.76l.1-.19c.52-.48,1.38-.96,1.41-1.71h-.3l-1.51.38-.1.19-.5-.09c0-.49.19-1.26-.5-1.33Z"/>
    <path class="e" d="m120.27,45.29l.2-.09.7-.57.2.09v.19c-1.04,1.23.56,1.01,1.31.63.98-.49,1.6-1.77,2.32-2.53l-.2-.19c-.78.1-2.56.41-2.82,1.14l-.2-.19c.08-.38.1-.75.1-1.14,0-.33.26-1.4-.06-1.61-.5-.32-.74.78-.86,1.02-.48,1-1.32,2.13-.69,3.24Z"/>
    <path class="e" d="m119.16,44.53v-.76h-.2c-.88.39-1.11,1.4-1.59,2.1-.22.31-.6.66-.69,1.03-.08.35-.2,1.5.44,1.37,1.22-.25,1.91-1.36,2.45-2.32.31-.55.39-1.27-.41-1.42Z"/>
    <path class="e" d="m115.84,48.23l-.1-1.71c-.36,0-.84-.18-1.15.04-.53,1.31-.78,2.62-.87,3.94-.03.5-.2,1.91.53,2.12.51.14.81-.47,1.01-.79.41-.65,2.18-3.46.59-3.61Z"/>
    <path class="e" d="m118.25,48.23v.28l-.8,1.99h.3c.45-.28.9.08,1.41-.11,1.46-.57,2.9-2.07,3.42-3.49l-.1-.09-2.41.06-1.81,1.36Z"/>
    <path class="e" d="m111.41,48.42l-.1.09c-.25,1.11-.73,1.86-.62,3.04.08.86-.27,1.71-.28,2.56,0,.53-.05,2.84,1,2.48.64-.22.87-1.03,1.18-1.53,1.08-.88.62-2.22.47-3.32-.19-1.36.12-2.9-1.64-3.32Z"/>
    <path class="e" d="m115.34,53.17h.2c1.37,0,2.87-.05,3.99-.92.45-.35.69-.93,1.04-1.36l-.1-.19-3.81.67-1.32,1.8Z"/>
    <path class="e" d="m109.2,52.6l-.1.19c-.73.57-.86,1.46-.98,2.28-.24,1.65-.03,3.1-.03,4.74h.3c1.88-.89,1.21-2.65,1.21-4.18,0-.85.03-2.29-.4-3.04Z"/>
    <path class="e" d="m106.18,53.55v.28c-3.59,2.2-2.11,7.44-2.11,10.72h.2c.69-.13,1.3-1.02,1.69-1.52.41-.53,1.08-1.26,1.25-1.9.4-1.42.03-3.11-.03-4.56-.03-.86.21-2.9-1.01-3.04Z"/>
    <path class="e" d="m111.81,57.34l.1.19h.2c2.74-.29,5.67-1.07,7.04-3.51l-.2-.09c-.86-.3-1.57.05-2.41.26-.77.2-1.57,0-2.31.37-.92.45-1.75,2.01-2.42,2.78Z"/>
    <path class="e" d="m117.15,57.63h-.2c-.5-.27-1,.15-1.51.26-1.22.27-2.44.69-3.64,1.02-.53.15-1.03-.06-1.47.35-.48.43-1.52,1.61-.92,2.3.34.39,1.91-.19,2.31-.33,1.68-.59,5.41-1.54,5.43-3.6Z"/>
    <path class="e" d="m100.44,68.45h.3c2.64-1.38,2.21-4.82,2.12-7.12-.03-.72.14-1.58-.04-2.28-.12-.5-.77-.61-.87-1.14h-.1c-.33.12-.87.19-1.14.38-.46.32-.8,1.48-.95,1.99-.61,2.14-.42,3.96.02,6.07.15.71.65,1.36.67,2.09Z"/>
    <path class="e" d="m105.68,65.03l.2.09c2.45.06,4.82-.31,6.94-1.62.52-.32,1.84-1.65,1.4-2.32-.48-.75-2.17.15-2.71.49-1.03.63-2.11.53-3.21.96-.91.35-2.21,1.56-2.63,2.4Z"/>
    <path class="e" d="m97.73,62.54c-.57.19-.91.8-1.28,1.2-1.66,1.8-1.95,4.31-1.58,6.6.13.83.3,1.67.58,2.47.09.25.25.77.63.67,1.54-.41,3.55-2.84,3.34-4.37-.15-1.11-.88-2.11-.89-3.32,0-.74-.26-1.45-.27-2.18,0-.29.23-.63.11-.91-.1-.23-.43-.23-.64-.16Z"/>
    <path class="e" d="m101.55,69.87h.3c1.92.11,3.87.33,5.73-.34.58-.21,1.21-.77,1.71-1.12,1.35-.95,2.78-2.06,3.73-3.38l-6.74,1.27c-.66.16-1.47.07-2.1.33-.41.17-.64.61-.92.92-.63.67-1.51,1.38-1.7,2.32Z"/>
    <path class="e" d="m92.7,66.74l-1.11,2.56c-.51,1.34-1.45,2.78-1.72,4.18-.45,2.36.1,4.84.11,7.21l.2-.09c.75-.2,1.18-1.07,1.7-1.57,1.01-.96,2.35-2.66,2.59-4.03.25-1.44-.46-3.46-.9-4.84-.26-.82.26-3.2-.88-3.42Z"/>
    <path class="e" d="m108.59,70.25h-.2c-.64,0-1.11.31-1.71.41l-2.72.34c-1.12.17-2.04-.32-3.12.25-1.29.69-2.52,1.57-3.35,2.77-.34.49-.09,1.55.55,1.76.7.22,1.91-.31,2.6-.46,2.42-.53,4.01-1.31,6.04-2.69.83-.56,1.91-1.35,1.91-2.39Z"/>
    <path class="e" d="m95.61,76.8v.28l-3.62,4.18.1.09h.2c4.24-.23,8.65-2.68,11.37-5.6l-.1-.19-4.43,1.19-3.52.04Z"/>
    <path class="e" d="m85.25,83.92l.6,1.71.1-.09h.1c1.02-.47,1.13-1.21,1.83-1.95.4-.42,1.16-.96,1.24-1.56.08-.65-.54-1.19-.63-1.8-.1-.64.15-1.26.15-1.9,0-.89-.29-1.55-.47-2.37h-.2c-1.35.04-1.89.88-2.34,1.98-.76,1.87-.77,4.05-.38,5.99Z"/>
    <path class="e" d="m88.17,85.81l.2.09c.48,1.15,2.8.42,3.71.1,2.28-.8,4.51-2.09,6.36-3.57.77-.62,1.72-1.52,2.11-2.41l-.1-.09-1.11.53-9.14,3.04-2.03,2.32Z"/>
    <path class="e" d="m82.53,81.64v.28c-.46.48-.42,1.12-.59,1.71-.68,2.34-.12,4.42-.11,6.74l.1-.09c1.3-1.08,3.06-2.6,2.8-4.37-.1-.64-.59-1.17-.75-1.8-.23-.93-.26-2.47-1.44-2.47Z"/>
    <path class="e" d="m84.55,90.27l.2.09c1.85.44,3.47-.39,5.23-.95v-.19c1.4-1.29,3.31-1.82,4.94-2.83.39-.24,1.48-.74,1.48-1.25,0-.91-1.95.38-2.19.55-2.46,1.7-6.39,1.26-8.41,3.43-.39.42-1.12.55-1.25,1.14Z"/>
    <path class="e" d="m78.61,94.26l.1-.19c1.78-1.29,2.88-2.97,1.46-4.95-.34-.48-.31-1.26-1.16-1.16-.7.08-.5.99-.5,1.46,0,1.32-.69,3.72.1,4.84Z"/>
    <path class="e" d="m82.13,95.4l.2.1.1.09c.57.28,1.63-.38,2.11-.66,1.5-.85,4.66-1.87,4.83-3.8h-.2c-1.43.15-2.9.87-4.33,1.16-.65.13-1.23-.38-1.9-.12-.5.19-.76.76-1.13,1.09-.51.45-1.37.78-1.55,1.48-.19.78,1.4,1.15,1.87.66Z"/>
    <path class="e" d="m76.2,98.15v-.19c.3-.27.92-1.25.97-1.63.06-.41-.19-.8-.13-1.22.07-.57.34-1.32.22-1.89-.1-.48-.88-.46-1.25-.3-.46.2-.49.73-.57,1.14-.19,1.03-.27,2.13.07,3.13.14.42.16.84.69.95Z"/>
    <path class="e" d="m74.99,93.03l-.1.09-.8.38-.6.1v.28c-.05.92-.11,2.91.6,3.61l.1-.28.8-4.18Z"/>
    <path class="e" d="m78.81,96.63l-.1.19c-.5.53-1.86,2.09-1.3,2.82.3.39.84.11,1.2-.03.93-.38,1.88-.62,2.31-1.55l.2.1c.75-.03,2.1-1.24,2.72-1.71v-.09c-1.82.43-3.18.81-5.03.28Z"/>
    <path class="e" d="m136.57,80.21h-.3l-.3.47h.3c1.77.92,2.8-1.17,4.23-1.61v-.19c-.97-.31-3.74.17-3.92,1.33Z"/>
    <path class="e" d="m133.75,81.45l.3.19c-.47.73.55.85,1.11.85l.3-.57c.49-.05,1.09-.14,1.21-.66h-.3l-.91-1.42h-.2c-.7.22-1.46.9-1.51,1.61Z"/>
    <path class="e" d="m130.43,82.97h.3l.5.09c-.98.63-.01.87.7.84.81-.03,1.83-.46,2.52-.84l-.3-.19c-.68-.17-1.43-.56-2.11-.28v-.19l1.21-1.9h-.2c-1.06.15-2.58,1.43-2.62,2.47Z"/>
    <path class="e" d="m130.23,81.35h-.2c-.7.06-2.23.83-2.73,1.29-.23.21-.51.74-.28,1.03.55.68,2.82-.45,3.11-.99.18-.33.04-.94.11-1.32Z"/>
    <path class="e" d="m127.01,82.21l-.1-.09h-.1c-1.02-1.3-2.95,1.61-3.34,2.47-.45.98.14,1.29,1.02.79l.79-.46c.34-.22.81-.61,1.06-.92.23-.29.03-.54.08-.85.05-.33.39-.66.59-.93Z"/>
    <path class="e" d="m119.56,87.24h.2c1.94-.06,2.87-1.9,3.53-3.32.27-.58.85-1.34.16-1.87-.5-.39-1.34.48-1.62.83-.92,1.13-2.43,2.85-2.27,4.36Z"/>
    <path class="e" d="m117.55,83.35l-.1.19c-2.88,0-5.01,4.12-5.74,6.36l.1.1h.1c2.76-.07,4.18-2.27,5.18-4.37.34-.71.95-1.47.65-2.28h-.2Z"/>
    <path class="e" d="m116.44,88.28h.3c2.07-.24,2.48-2.9,3.22-4.37v-.09c-1.78.36-3.32,2.85-3.52,4.46Z"/>
    <path class="e" d="m126.4,85.43l.6.28c1.19.92,3.38-.35,4.43-.95l-.2-.09-1.01-.38v-.19c-.76-.74-3.62.4-3.82,1.33Z"/>
    <path class="e" d="m112.92,84.58l-.1.09c-2.25-.73-3.91,2.69-4.5,4.27-.19.51-.8,1.69-.42,2.22.29.4,2.06-.68,2.38-.9,1.08-.73,1.5-2.26,2.09-3.31.23-.4.71-.77.79-1.23.06-.37-.23-.75-.25-1.14Z"/>
    <path class="e" d="m123.99,86.29l.1.09v.09c1.34.88,2.71,1.09,4.13.28v-.19l-2.72-.91-1.51.63Z"/>
    <path class="e" d="m108.09,86.25c-2.46.36-3.83,2.01-4.87,3.97-.32.6-1.37,2.77-.06,2.7,1.15-.06,2.87-.48,3.48-1.51.45-.76.42-1.83.85-2.66.33-.62.91-1.45,1.11-2.09.1-.32-.22-.46-.5-.42Z"/>
    <path class="e" d="m119.76,87.9l.1.19c1.87.83,4.44,1.46,6.24.19l-.1-.09c-.4-.47-.94-.45-1.51-.63-.48-.15-.9-.49-1.41-.58-1.18-.2-2.24.6-3.32.92Z"/>
    <path class="e" d="m103.06,87.24v.28c-1.55.95-3.52,2.02-4.72,3.36-.75.84-1.23,1.92-1.72,2.9-.29.59-.79,1.16-.91,1.8h.3c1.49-.24,4.29-1.12,5.14-2.37.7-1.04.88-2.45,1.27-3.6.28-.83.93-1.46.94-2.37h-.3Z"/>
    <path class="e" d="m123.28,90.08l-.1-.09c-.3-.49-1.66-.54-2.21-.58-1.29-.08-2.2-1.09-3.52-.6-.41.15-.88.35-.94.82-.08.6,1.22.75,1.65.82,1.61.27,3.84.76,5.13-.37Z"/>
    <path class="e" d="m112.62,90.65l.1.19c.72.84,1.69.97,2.72,1.18,1.76.35,2.96.49,4.53-.51v-.19c-.48-.79-1.76-.65-2.62-.67-.74-.02-1.39-.51-2.11-.53-.88-.03-1.75.46-2.62.53Z"/>
    <path class="e" d="m107.89,92.36l.1.19c2.43,2.83,6.38,1.69,9.46.95l-4.93-1.66c-1.8-1.22-3.19-.02-4.63.52Z"/>
    <path class="e" d="m90.99,97.3h.3c.57.28,1.25-.38,1.74-.59.46-.2,1.03-.22,1.42-.55.37-.31.26-1.01.45-1.42.5-1.09,1.2-1.86,1.52-3.04l-.1-.1c-2.92-.99-5.19,3.53-5.33,5.69Z"/>
    <path class="e" d="m105.78,93.17c-.73.12-1.92.29-2.49.76-.31.25-.52.98-.16,1.28.43.36,1.22.41,1.75.59,2.05.66,4,.8,6.14.27.3-.07,1.26-.26,1.2-.67-.06-.44-1.16-.46-1.51-.61-.65-.28-1.37-.44-2-.75-1-.5-1.68-1.07-2.93-.86Z"/>
    <path class="e" d="m86.36,98.91l.2.1c.97-.42,2.55-.47,3.2-1.35.44-.6.36-1.47.55-2.16.1-.35.76-1.6.24-1.83-.59-.25-1.24.63-1.55.97-1.17,1.29-2.1,2.65-2.64,4.27Z"/>
    <path class="e" d="m96.72,96.63l.1.1v.09c3.31.66,6.65,1.85,9.96.38l-4.33-1.52-1.31-.66-4.43,1.61Z"/>
    <path class="e" d="m82.53,100.52l.1-.1c1.56-.42,3.21-.81,3.06-2.75-.03-.38.21-1-.26-1.23-.49-.23-.82.45-1.01.75-.62.99-1.88,2.14-1.9,3.32Z"/>
    <path class="e" d="m92.39,98.24v.28c.42,1.03,1.77,1.18,2.82,1.34,2.76.43,5.16-.06,7.75-.86l-.2-.28c-1.97.35-4.29-.83-6.24-1.1-1.55-.21-2.65.28-4.13.62Z"/>
    <path class="e" d="m79.11,102.14h.2c1.16-.43,1.5-1.24,2.21-2.09.25-.29.78-.8.37-1.16-.6-.52-1.12-.07-1.53.4-.73.83-1.25,1.74-1.25,2.85Z"/>
    <path class="e" d="m88.17,99.86v.19c.85.82,2.58,1.39,3.82,1.28.39-.03.69-.31,1.11-.33.81-.04,1.6.19,2.41.19.4,0,2.53.05,2.62-.4.11-.55-2.08-.36-2.42-.36-2.65,0-4.88-1.44-7.55-.57Z"/>
    <path class="e" d="m78.71,100.14l-.1.1v.1c-1.11.03-2.22.34-3.32.38-.45.02-1.04-.12-1.21.38l.2.1,3.28.61,1.35-1.46-.2-.19Z"/>
    <path class="e" d="m84.55,102.52v.47h.3c2,.02,4.37.55,6.14-.57v-.19c-1.11-.27-2.36-.36-3.41-.81-.52-.22-.76-.82-1.42-.78-.51.03-2.19.35-2.59.63-.77.52.45,1.24.98,1.25Z"/>
    <path class="e" d="m81.69,102.08l-.1.1v.09l-1.63.75.02.11h.1c.93.47,1.68.03,2.01,1.23l.2-.09,2.82-.47-.1-.09v-.1c-1.11-.06-2.56-.56-3.12-1.52h-.2Z"/>
    <path class="e" d="m2.95,86.19l.1.19c1.63,1.05,2.84,1.85,4.73,1.04v-.19c-1.16-.98-3.29-1.51-4.83-1.04Z"/>
    <path class="e" d="m8.28,86.57v.28l-1.01,1.23v.28c.42.41,1.16.28,1.71.28v.47h.3c.57-.05,1.19-.56.5-.95l.1-.19h.2l.2-.09v-.19c-.47-.5-1.28-1.11-2.01-1.14Z"/>
    <path class="e" d="m12.2,88.76l-.3.09-2.11.57v.29c.84.2,1.72.64,2.62.55.88-.08,1.6-.53.5-1.03l.1-.19h.1c1.33.4.02-1.08-.43-1.34-.31-.18-1.59-.98-1.92-.74-.33.25,1.16,1.63,1.44,1.8Z"/>
    <path class="e" d="m25.48,91.98v-.19c-.01-1.28-1.22-2.14-2.08-2.98-.33-.32-.54-.73-.91-1.02-.34-.27-1.27-1-1.69-.61-.66.61.14,1.43.47,1.96.96,1.54,2.14,2.83,4.21,2.85Z"/>
    <path class="e" d="m17.23,87.62v.19c.2.29.56.54.68.87.11.3-.05.63.18.91.24.29.76.49,1.07.71.34.24,2.09,1.06,2.25.35.14-.61-.48-1.09-.84-1.5-.9-1-1.98-2.39-3.35-1.52Z"/>
    <path class="e" d="m13.81,87.33v.19c.22.4,0,.85.27,1.2.41.56,1.99.97,2.65.79.22-.06.65-.07.73-.31.12-.32-.25-.71-.5-.88-1.47-.06-1.92-.99-3.15-.99Z"/>
    <path class="e" d="m26.79,87.71l-.1.09c.05.85.58,1.41,1.06,2.09,1.02,1.46,1.86,2.86,3.67,3.45.45.15,1.83.66,2.25.35.4-.3-.84-1.78-1.05-2.08-1.48-2.14-3.21-3.43-5.83-3.89Z"/>
    <path class="e" d="m31.92,88.38v.19c-.04.34-.16.71-.04,1.04.17.46.69.75.98,1.14.75,1.02,1.42,2.48,2.68,3.06.41.19,2.03.96,2.41.49.4-.5-.49-1.69-.71-2.13-.93-1.81-2.93-4.4-5.32-3.8Z"/>
    <path class="e" d="m24.68,88.57l.1.09v.09c.73,1.53,1.97,4.18,4.13,3.8l-.1-.19c-.53-1.53-2.34-3.6-4.13-3.8Z"/>
    <path class="e" d="m43.7,95.49v-.19c-.05-1.78-1.77-3.64-3.14-4.67-.57-.43-1.14-.88-1.89-.93-.48-.03-1.73-.62-2.11-.13-.18.23.13.48.29.61.6.5.82,1.26,1.32,1.84.61.71.58,1.73,1.14,2.43.97,1.2,2.97,1.05,4.38,1.05Z"/>
    <path class="e" d="m41.99,89.7v.28c.31.73.95,1.29,1.3,1.99.56,1.11.95,2.66,1.85,3.56.95.96,2.72,1.17,3.99,1.41.67.12,1.22.37,1.91.25v-.19c-1.21-1.28-1.92-2.91-3.27-4.09-1.16-1.02-2.95-1.76-4.39-2.37-.5-.21-.88-.73-1.4-.84Z"/>
    <path class="e" d="m13.71,90.75h-.3l-.3.1.1.19c.81.51,2.47.92,3.42.77.51-.08,1.05-.22,1.11-.77h.5v-.19c-.69-.82-4.19-1.6-4.53-.1Z"/>
    <path class="e" d="m16.53,92.36l.1.19c1.34.94,3.16.09,4.23-.85l-.2-.1c-1.8-.95-2.47.3-4.13.76Z"/>
    <path class="e" d="m19.05,93.97h.3c1.9.98,4.38-.26,6.04-1.14l-.2-.19c-1.09-.22-2.19-.85-3.31-.5-.51.16-.88.57-1.36.79-.6.28-1.35.28-1.47,1.04Z"/>
    <path class="e" d="m52.25,97.77h.3c1.19.22,2.42.78,3.62.57v-.19c-.41-.51-.42-1.03-.69-1.57-.58-1.2-1.96-2.63-3.23-3.16-.53-.22-2.25-1.09-2.4.09-.11.91,1.1,1.77,1.66,2.38.44.48.66,1.26.74,1.89Z"/>
    <path class="e" d="m22.16,95.4l.2.1c.73.5,1.4.34,2.21.18,1.57-.3,3.01-.88,4.53-1.32v-.19c-.74-2.16-3.36-.22-4.63.1-.74.19-2.11.29-2.31,1.13Z"/>
    <path class="e" d="m25.79,95.68v.28c.07.71,1.38.97,2.01.94,2.13-.08,3.67-1.15,5.33-2.18v-.19c-.73-.26-2.38-.42-3.12-.2-.59.17-1.04.65-1.63.82-.83.24-1.75.28-2.6.52Z"/>
    <path class="e" d="m57.48,98.72h.3c.73.55,2.31.64,3.22.66v-.19c-.82-1.52-2.02-2.85-3.42-3.93-.3-.23-1.25-1.14-1.64-.69-.24.27.1.83.23,1.09l1.31,3.05Z"/>
    <path class="e" d="m28.6,97.87l.2.1c.67.38,1.85.38,2.62.38.87,0,1.98.17,2.82-.05,1.59-.42,2.61-1.61,3.92-2.42v-.19c-2.25-1.76-5.28.11-7.35,1.09-.74.35-1.5.66-2.2,1.09Z"/>
    <path class="e" d="m39.97,96.2c-1.68.24-3.01,1.44-4.46,2.29-.33.2-1.34.24-1.28.79.04.35.72.42,1,.46,1.03.14,2.48.18,3.5,0,1.23-.21,2.22-.8,3.34-1.25.37-.15,1.17-.34,1.4-.67.28-.41-.1-1.12-.5-1.32-.79-.38-2.15-.43-3.02-.3Z"/>
    <path class="e" d="m65.13,100.33v-.19c-.47-1.04-1.61-1.97-2.39-2.85-.23-.25-.67-.87-1.1-.66-.56.29-.13.9-.11,1.32.12,2.02,1.87,2.28,3.6,2.37Z"/>
    <path class="e" d="m39.97,100.14l.1.19c.71.36,1.73.19,2.52.19,2.63,0,5.25-.76,7.55-1.99l-.2-.1-4.41-1.01-2.39,1.53-3.16,1.19Z"/>
    <path class="e" d="m69.55,100.52l.1.1v.1l.4.38.1-.09h.1c.23-.88-.71-1.79-1.31-2.37-.27-.26-.79-.65-1.13-.24-.38.45,1.16,2.23,1.74,2.13Z"/>
    <path class="e" d="m68.85,101.66v-.19c-.04-1.06-.92-1.97-1.71-2.64-.44-.37-1.08-.71-1.55-.16-.4.47.32.94.64,1.21.84.7,1.32,1.73,2.62,1.78Z"/>
    <path class="e" d="m44.1,101.38v.28c2.69.5,5.59.78,8.25-.17,1.11-.39,2.41-.76,2.41-2.01h-.2c-2.87-1.01-5.53.52-8.25,1.33-.8.24-1.35.56-2.21.56Z"/>
    <path class="e" d="m59.39,100.52l-.1-.1c-.87.1-1.77-.13-2.62.03-1.66.31-3.26,1.28-4.93,1.68-.32.08-2.69.1-2.3.7.32.49,2.22.07,2.7,0,.6-.1,1.22-.34,1.81-.4,1.74-.18,4.65.11,5.43-1.91Z"/>
    <path class="e" d="m56.88,103.56h.3c.48.52,1.36.41,2.01.33l4.33-.7v-.19c.31-.37,1.12-.74,1.02-1.32-.05-.27-.37-.36-.61-.38-.7-.06-2.16-.36-2.78-.15-.38.12-.52.52-.78.76-.32.3-.94.49-1.36.63-.54.19-1.97.44-2.11,1.02Z"/>
    <path class="e" d="m63.17,103.97l.1.19,2.82.28.1-.28,1.03-.88,1.24-.47-.14-.17c-.52-.23-1.51-.67-2.11-.5-.3.09-.52.54-.76.73-.57.44-1.53,1.04-2.28,1.1Z"/>
    <path class="e" d="m75.49,103.37h.2c.7-.21,1.47.08,2.11-.15.33-.12.7-.71.35-.99-.54-.41-2.05-.25-2.66-.06-.23.07-.74.14-.74.45,0,.27.58.53.74.75Z"/>
    <path class="e" d="m73.98,108.3l.1-.1c0-.81.06-1.59.31-2.37.11-.35.56-.87.51-1.23-.05-.31-1.32-1.53-1.54-.92-.13.37.1,1.01.17,1.39l.46,3.23Z"/>
    <path class="e" d="m77,104.03v.28c.34,1.68,2.13,1.39,3.32.7.54-.31,1.06-.39,1.11-1.08l-4.43.1Z"/>
    <path class="e" d="m76.09,112.29h.3l.4-.1c0-1.12-.12-2.3.01-3.42.07-.56.6-.92.46-1.52-.07-.31-.86-1.65-1.19-1.74-.74-.21-.93,1.16-1.08,1.55-.66,1.68.54,3.66,1.09,5.22Z"/>
    <path class="e" d="m79.21,106.22v.19c.95,2.35,2.93,1.35,4.73.77.44-.14,2.05-.27,2.05-.84,0-.47-2.15-.56-2.55-.58-.56-.03-1.15-.02-1.71,0-.88.03-1.67.24-2.52.47Z"/>
    <path class="e" d="m82.03,108.59v.28c0,.62.7.94,1.31,1.04v.19c.24.25.62.59,1.01.6.52.02,1.02-.39,1.51-.52,1.07-.27,2.25.06,3.32-.24.31-.09.93-.29,1.03-.62.28-.89-1.06-1.26-1.73-1.41-1.42-.32-3-.26-4.43.06-.69.15-1.28.58-2.01.6Z"/>
    <path class="e" d="m80.12,116.84h.3c.47-.83-.44-2.15-.73-2.97-.44-1.24-.03-2.77-.19-4.05-.06-.52-.59-1.1-.79-1.61-.94.36-.95,1.67-.9,2.47.03.45-.03,1.18.15,1.59.18.4.61.64.77,1.1.43,1.22.73,2.3,1.38,3.48Z"/>
    <path class="e" d="m83.94,119.12v-.28c-.64-1.29-.7-3.05-.7-4.46,0-.45.21-1.39-.4-1.52v-1.23l-.8-.28c-.17-.8-1.18-1.01-1.54-.19-.84,1.94.24,4.74,1.4,6.35.48.66,1.16,1.45,2.04,1.61Z"/>
    <path class="e" d="m85.35,111.25v.28c3,3.76,6.05,2.02,9.46,1.27.93-.2,1.88-.13,2.82-.42l-5.84-1.76-6.44.62Z"/>
    <path class="e" d="m84.24,112.86l-.1.19c0,2.23.06,4.26,1.37,6.17.41.59.82,1.45,1.65,1.52l-.29-3.13.69-2.56-3.32-2.18Z"/>
    <path class="e" d="m95.31,113.75c-1.16.16-2.29.27-3.42.59-.34.1-.91.17-1.15.44-.34.38.16.82.41,1.11.72.86,1.67,1.35,2.84,1.22.41-.05.71-.37,1.12-.47,1.28-.29,2.56-.46,3.82-.78.37-.1,1.24.1,1.49-.22.35-.44-.59-.89-.84-1.13-.93-.87-3-.94-4.27-.77Z"/>
    <path class="e" d="m91.29,123.77v-.19c.14-.4-.06-.74-.09-1.14-.04-.59.09-1.21.09-1.8,0-.76.63-1.39.47-2.18-.26-1.25-2.61-3.52-3.79-1.77-.28.42-.1,1.29-.1,1.77,0,1.8,1,5.31,3.42,5.31Z"/>
    <path class="e" d="m95.21,118.79v.33c1.64,1.12,3.89.31,5.63.03.57-.09,1.25.11,1.79-.11.48-.2.75-.79,1.22-1.03v-.22c-.35-1.08-1.37-1.33-2.41-1.33-1.72,0-3.29.11-4.93.73-.54.21-1.65.36-2.01.9-.33.49.42.68.7.7Z"/>
    <path class="e" d="m92.8,118.65v.28c-.7.83-1.13,3.06-.74,4.08.3.79,1.29,1.78,1.95,2.32.46.38.87.92,1.51,1l-.2-6.17c-.71-.61-1.54-1.33-2.52-1.52Z"/>
    <path class="e" d="m97.36,120.17l.1.19c.15.67,1.14.99,1.71,1.27,1.88.92,5.5-.15,7.34-.89v-.28c-.65-.47-1.11-1.07-2.01-1.14"/>
    <path class="e" d="m98.43,122.73h-.3c-.07-.32-.27-.5-.6-.57v-.19c-.75-1.77-1.59.58-1.49,1.42.12.97.39,2.42,1.22,3.08.5.4,1.53.79,1.88.05.26-.55-.4-1.39-.6-1.9-.22-.56-.1-1.3-.1-1.9Z"/>
    <path class="e" d="m101.05,122.44v.28c.22.5.97.69,1.51.71,1.3.05,3.06-.68,4.33-1v-.19c-1.7-1.07-4.05,0-5.84.19Z"/>
    <path class="e" d="m109.7,123.39h-2.62c-.54,0-1.07,0-1.61.07-.46.06-2.59.31-1.94,1.14.24.3.69.29,1.03.42,1.36.51,4.88.12,5.13-1.63Z"/>
    <path class="e" d="m99.27,123.49c-.36.22-.27.98-.21,1.33.16.9.63,2.49,1.26,3.2.26.3.99.53,1.37.33.36-.19.1-1.13,0-1.44-.1-.31-.36-.54-.42-.86-.19-1.09.47-2.46-1.24-2.63-.24-.02-.56-.05-.77.08Z"/>
    <path class="e" d="m102.46,124.82v.28c0,.74-.22,2.93.8,3.13v.28c.36.52.96.82,1.61.85v-.19c.18-.65.24-2.64-.19-3.2-.28-.37-1.74-1.07-2.22-1.17Z"/>
    <path class="e" d="m110.71,126.43v-.19c.02-.26.16-.65-.06-.86-.25-.24-.72-.18-1.04-.18-.86,0-2.45-.11-3.05.62-.51.62,1.05.96,1.44,1,.34.03.67.19,1,.17.62-.04.96-.55,1.71-.55Z"/>
    <path class="e" d="m105.78,126.81v.28c0,1.2-.19,2.56,1.51,2.75v-.19c-.08-1.35.2-2.56-1.51-2.85Z"/>
    <path class="e" d="m112.32,128.14v-.19c-.52-.42-1.92-1.47-2.58-.96-.89.68.83,1.77,1.48,1.78.47,0,.65-.54,1.11-.63Z"/>
    <path class="e" d="m107.79,127.85l.1.19c-.48,1.35.88,2.56,2.31,2.66v-.19c.03-.4.28-.93.14-1.32-.27-.75-1.74-1.54-2.55-1.34Z"/>
    <path class="e" d="m111.71,129.56l-.3.19-.6-.09v.28c.38.8.91,1.52,1.91,1.71v-.28c-.11-.49-.12-1.15-.6-1.42l.1-.1,1.51-.1v-.19c-.24-.45-1.2-.75-1.71-.73-.57.02-.81.39-.3.73Z"/>
    <path class="e" d="m113.52,130.23l-.4.76.1.76.7.1.6.38.2-1.33v-.19c-.21-.36-.8-.46-1.21-.47Z"/>
    <path class="e" d="m114.63,131.27v.28c.47,1.07,1.04,1.2,1.91,1.9l.1-.19c-.43-.93-.94-1.45-1.81-1.99h-.2Z"/>
    <path class="e" d="m70.26,104.13v-.19c-.56-.63-2.75-.93-3.46-.38-.35.26-.01.93.35,1.01.58.14,1.19-.1,1.8.03.56.12.83-.31,1.31-.47Z"/>
    <path class="e" d="m70.86,109.73l.2-.1c.47-1.57.4-3.22.4-4.84h-.1c-.46.12-1.31.63-1.33,1.14-.02.37.38.78.49,1.14.26.9.34,1.73.34,2.66Z"/>
    <path class="e" d="m63.52,105.27v.28c.21.5.65.56,1.11.8,1.37.72,2.89.89,3.42-.8l-.1-.1c-1.1-.57-3.19-.19-4.43-.19Z"/>
    <path class="e" d="m68.15,113.71h.2c.58-.2.89-.8,1.09-1.33.46-1.24.87-2.82.48-4.08-.14-.44-.24-1.27-.79-1.46-.44-.15-1.4,1.29-1.51,1.65-.18.55.46,1.08.53,1.61.14,1.17.01,2.42.01,3.61Z"/>
    <path class="e" d="m64.02,109.44v-.28c.8-.03,1.28-.93,1.81-1.42l-.2-.1c-1.32-.83-3.54-.62-5.03-.46-.38.04-1.5.08-1.56.57-.06.46.85.49,1.16.57,1.31.3,2.47,1.05,3.82,1.13Z"/>
    <path class="e" d="m57.48,109.1c-.85.12-1.66.22-2.4.67-.75.45-.21,1.21.39,1.46.92.39,2.14-.04,3.12.14.63.11,1.49.78,2.11.66.48-.1,1.6-.99,1.97-1.32.19-.17.32-.5.08-.69-1.66-.64-3.47-1.17-5.27-.92Z"/>
    <path class="e" d="m66.13,109.54l-.69,1.71-.43,4.65-.59,2.28h.3c.72-.58,1.19-1.89,1.37-2.75.13-.61.15-1.46.94-1.61v-.19c0-1,.64-3.77-.91-4.08Z"/>
    <path class="e" d="m62.91,112.86h-.3c-.56.05-.7,1.15-.8,1.62-.3,1.49-.46,3.23-.51,4.74-.01.44-.42.8-.3,1.23h.2c1.95-1.71,3.42-3.39,3.42-6.07,0-.62.09-1.44-.27-1.99-.55-.85-1.41-.39-1.44.47Z"/>
    <path class="e" d="m47.32,113.52v.19c.76.44,1.86.34,2.72.48l4.13.87c.82.15,1.28.37,2.11.04,1.07-.43,1.74-1.01,2.6-1.65.23-.17.9-.45.61-.82-.29-.38-1.83-.24-2.31-.35-1.59-.36-3.63-.53-5.23-.14-1.52.37-3.01,1.39-4.63,1.39Z"/>
    <path class="e" d="m60.5,114.19l-.1.1v.1l-2.92,1.99v.28l.3,1.71h.3l-.3,3.61h.3c.7-.22.99-.81,1.41-1.33,1.3-1.58,1.59-4.51,1.21-6.45h-.2Z"/>
    <path class="e" d="m48.12,115c-1.12.22-1.93.3-2.93.85-.33.18-.94.56-.8.99.14.43,1.31.37,1.71.45,1.29.24,2.55.42,3.82.76.71.19,1.11.54,1.91.37.86-.19,1.46-.84,2.07-1.38.22-.2.6-.56.28-.84-.44-.41-1.36-.57-1.95-.67-1.32-.23-2.77-.78-4.13-.51Z"/>
    <path class="e" d="m53.46,119.5h-.3l.49,2.18v3.42h.21c.8-.07,1.42-.75,1.85-1.33.99-1.32,1.37-2.36,1.37-3.98,0-.47.2-1.47-.16-1.83-1.24-1.25-3.42.07-3.46,1.55Z"/>
    <path class="e" d="m41.28,118.17v.28l.1.85c.32.2.54.57.91.7.52.18,1.16,0,1.71.08,1.39.22,2.78.51,4.23.44.71-.03,2.18-.69,2.21-1.42h-.2c-2.35-.93-4.68-1.48-7.24-1.32-.59.04-1.13.3-1.71.37Z"/>
    <path class="e" d="m49.43,127.66l.2-.09c1.1-.56,2.98-2.12,3.29-3.33.18-.7.02-1.66-.1-2.36-.11-.65-.57-1.24-.67-1.9h-.1c-.76.26-2.03.93-2.4,1.64-.22.41.07,1.05.04,1.49l-.25,4.56Z"/>
    <path class="e" d="m38.36,121.78v.19c.4.47,1.31.58,1.9.69,1.72.31,3.67,1.05,5.34.28.49-.22,1.81-.7,1.84-1.35.02-.46-1.95-.62-2.34-.67-1.54-.19-3.85-.73-5.33-.17-.6.23-.92.68-1.41,1.02Z"/>
    <path class="e" d="m48.43,122.63h-.1c-.71.19-1.7,1.1-1.8,1.81-.07.52.11,1.11-.11,1.61-.21.48-.98,1.55-.38,2.03.59.47,1.84-.28,2.11-.81.49-.96.93-2.23.75-3.31-.07-.46-.38-.87-.48-1.33Z"/>
    <path class="e" d="m37.96,123.58l.3.19c.8.57,1.98.53,2.92.75.42.1.86.32,1.31.24.58-.1,1.38-.37,1.41-.99h-.2c-1.82-.46-3.94-.98-5.74-.19Z"/>
    <path class="e" d="m35.95,124.57c-.85.12-.76.79-.09,1.2.76.47,2.67,1.01,3.58.88.51-.07,2.83-.77,1.78-1.43-.99-.62-2.64-.43-3.76-.51-.53-.04-.96-.22-1.51-.14Z"/>
    <path class="e" d="m43.6,125.39v.19c.28,1.03-.22,2.03-.31,3.04-.02.28-.28.73-.08.99.38.49,1.36-.2,1.59-.52.61-.84,1.03-2.31,1.1-3.32.05-.71-.32-1.3-1.19-1.07-.42.11-.75.48-1.11.69Z"/>
    <path class="e" d="m40.07,130.7h.3c2.05-.66,2.11-2.83,2.11-4.56h-.2c-.49.19-1.69.76-1.99,1.16-.5.67-.32,2.6-.22,3.39Z"/>
    <path class="e" d="m34.24,127.66h.2c.44.15,1.01.56,1.41.63.33.06.78-.12,1.1-.19.36-.08,1.59-.33,1.52-.82-.09-.56-1.28-.64-1.72-.68-.52-.05-2.15-.36-2.51.09-.19.23-.01.7,0,.97Z"/>
    <path class="e" d="m37.56,131.17h.3c1.65-.63,1.31-1.74,1.31-3.13-1.69.48-1.51,1.72-1.61,3.13Z"/>
    <path class="e" d="m32.73,129.47h.3c.6,1.4,2.38-.12,2.41-1.14h-.2c-.72-.25-2.43.3-2.52,1.14Z"/>
    <path class="e" d="m34.64,132.03h.3c.87-.44,2.3-.88,2.37-1.98.02-.3-.22-.56-.25-.86h-.2c-.72.24-2.11.55-2.27,1.43-.08.44.11.95.06,1.41Z"/>
    <path class="e" d="m31.22,131.08l.91,1.9h.3c.59-.42,2.76-1.99.8-1.99l.1-.19.1-.47c-.62-.42-2.18-.03-2.21.76Z"/>
    <path class="e" d="m30.21,132.12l.2,1.42h.3l.7-.57h.3c.13-.36.18-.85-.3-.95v-.47h-.2c-.44.05-.9.1-1.01.57Z"/>
    <path class="e" d="m28.3,134.59h.2c.94-.35,1.7-.87,1.71-1.9-1.03.19-1.51,1.04-1.91,1.9Z"/>
    <path class="e" d="m72.37,106.22v.29c0,3.12-.27,5.79-.65,9.2-.18.76-.13,1.27-.36,2.07l-.09.59c-.26,2.18-1.2,4.5-2.01,6.55-.73,1.85-1.77,3.68-2.92,5.31-.34.49-1.1,1.33-.48,1.87.55.49,1.18-.07,1.59-.45.95-.89,1.93-2.16,2.47-3.32,2.35-5.01,3.57-10.06,3.57-15.56,0-1.75-.14-3.23-.48-4.93-.1-.5-.01-1.43-.63-1.61Z"/>
    <path class="c" d="m84.8,103.84c.86-.52,2.28.09,2.96.09.62-.05,1.21-.37,1.81-.51.71-.16,1.62-.2,2.28-.48.54-.23.57-1.02,1.25-1.22.58-.17,1.75.04,2.41.04,1.16,0,2.25-.25,3.32-.63,1.19-.42,2.62-.8,3.72-1.38.41-.21,1-.36,1.11-.83l4.63-1.78,2.41-.34,2.17-.74.67-.97.99-.11,3.82-1.08v-.28c.04-.95,1.06-1.06,1.81-1.37.58-.23.94-.71,1.51-.93.99-.38,1.98-.27,2.72-1.12l-.1-.19-.1-.1c-.1-.56.46-.56.91-.65.84-.18,2.1-.36,1.81-1.43l.2-.09c.93-.19,2.17-.33,2.82-1.04l-.1-.19-.1-.09c.33-.77,1.93-1.14,2.72-1.33l-.1-.19c-.09-.41.22-.66.6-.81,1.05-.41,2.02-.53,3.02-1.09l-.1-.09-.5-.28,3.02-1.39,4.13-3.07-4.93.5-1.21.26-.3-.09-2.21.47h-.2c-.94.35-1.54,1.3-2.52,1.62-.61.2-1.17-.28-1.71-.1-.58.19-1.05.73-1.71.68-.54-.04-.81-.71-1.42-.74-.89-.04-1.97,2.35-2.21.43h-.3c-.32-.6-1.27.16-1.59.42-.55.45-1.23.66-1.81,1.07-.35.25-.68.67-1.13.76-.74.14-1.52-.35-2.31-.33-.51.01-1.27.47-1.68.75-.34.23-.33.74-.84.79-.84.08-1.7-1.07-2.41-.77-.91.38-1.45,1.36-2.41,1.72-.71.26-1.72-.09-2.52.18-.76.25-1.38,1.13-2.12,1.28-.68.14-1.08-.47-1.8-.13-.82.39-1.85.77-2.59,1.28-1.13.78-2.07,1.81-3.29,2.48-.53.29-1.06-.25-1.57-.11-1.03.28-2.86,1.46-3.32,2.39l-.2-.1-.4-.09-.1-.28h-.2c-1.25.01-2.75.86-3.58,1.72-.49.51-.95,1.35-1.57,1.72-.78.47-1.56-.18-2.2.73v-.19c.77-.68,1.86-.9,2.72-1.5.62-.43,1.02-1.05,1.56-1.55.68-.63,1.49-1.15,2.15-1.8.7-.7-.1-1.57.75-2.28.37-.3.77-.3,1.15-.53,1.29-.76,2.89-1.52,3.92-2.6.88-.92,1.49-2.01,2.29-2.93.82-.94,1.69-1.71,2.38-2.76.39-.59.43-1.44.85-1.98.6-.77,1.59-1.39,2.29-2.12.37-.39.44-.92.79-1.3.59-.64,1.52-1.04,2.19-1.63.95-.84,1.69-1.87,2.62-2.74l-.1-.19c0-.32-.21-.74-.08-1.04.19-.45.8-.58,1.14-.89,1.12-1.03,3.45-2.68,3.27-4.23h-.3c.04-.99.97-1.74,1.57-2.47.23-.28.64-.71.34-1.04l.1-.09v-.09c1.19-1.1,2.7-2.13,2.72-3.8l-.2.09c-1.05-.4.88-1.6,1.23-1.99.36-.39.72-.87.74-1.41.01-.3-.41-.47-.27-.76.51-1.11,2.79-1.71,2.23-3.23h-.3l-.1-.09c.09-.87,1.47-2.36,2.21-2.85l-.1-.28h-.2c-.27-1.33,1-1.89,1.89-2.79.44-.44.66-1.03.93-1.57h-.81c.18-1.18,1.54-2.19,2.2-3.15.74-1.06,1.03-2.52,1.54-3.68.33-.76.96-1.74.99-2.56h-.3c-1.57,1.01-3.3,2.15-4.62,3.44-.55.55-.46,1.68-1.42,1.87v-.76l-.2.09c-1.19.52-.86,2.11-2.11,2.66l-.1-.19.1-.66-.1.09h-.1c-.98.89-.86,2.55-1.92,3.5-.52.47-1.39.43-1.81.83-.64.61-.77,1.58-1.71,1.93-.64.24-1.56-.43-2.16.06-.66.56-.15,2.01-.88,2.41-.62.34-1.28-1.08-2.13-.41-.45.35-.51.88-.72,1.36-.29.67-.79,1.25-1.11,1.91-.3.64-.43,1.46-.99,1.96-.86.75-2.16.29-3.04,1.13-.43.41-.96,1.4-1.17,1.95-.21.57.03.95-.62,1.35-.84.51-2.18-.15-2.9.39-1.01.77-.64,2.75-1.55,3.64-.25.24-.64.12-.95.23-.71.24-1.27.62-1.76,1.16-.41.45-.81,1.12-1.02,1.68-.15.39-.17.94-.51,1.23-.57.49-1.44.19-1.96.74-2.21,2.35-2.64,5.35-4.21,7.99-.46.78-1.68.48-2.06,1.24-.47.93-1.14,1.79-1.52,2.76-.35.89-.22,1.82-1.35,2.17l-.2.28c-.81-.38-1.51.35-1.84.95-.78,1.42-.9,2.88-1.07,4.46-.03.27.05,2.08-.45,1.66-1.05-.88-.55-2.16-.39-3.28.11-.75-.03-1.66.19-2.37.59-1.85,1.75-3.4,1.75-5.41,0-1.08-.38-3.69-1.81-3.89l.1-.19c.99-2.36,2.23-4.34,2.41-6.93.1-1.44-.85-2.54-1.01-3.89-.12-1.01.54-2.38.66-3.42.08-.65-.38-1.19-.33-1.8.06-.75.67-1.55.9-2.28.32-1.02.16-2.01.26-3.04.04-.45.3-.87.29-1.32,0-.87-1.39-.99-1.35-1.9.02-.4.45-.65.53-1.05.11-.61.06-1.26.18-1.89.2-1.06.66-2.23.51-3.32-.11-.78-1.35-1.14-1.66-1.99-.36-1.01.13-2.42-.08-3.51l-.4-.28.56-3.99-.86-1.42-.1.09h-.1c-.39.19-.88.02-.86-.47.05-1.3.77-2.34.28-3.71-.21-.6-1.16-.36-1.18-1.05-.04-1.4,1.24-3.15-.15-4.27l-.2.19-.3-.09-.2-4.37-.1.09h-.1c-.69.17-.82-.76-.87-1.23-.14-1.38,1.09-2.7.17-4.08l-.2.19-.4.19c-.9-1.25-.17-2.92-.26-4.28-.17-2.44-1.79-4.73-1.85-7.2h-.2l-.1.19c-.37,2.03-1.79,3.93-2.19,5.99-.13.7.78,1.67.27,2.31-.27.34-.61-.36-.7-.53l-.2.09v3.89h-.3l-.3-.66-.2.19.74,3.89-1.21,2.19.12,1.7-.46,1.42h-.1c-.27.14-.54.29-.8.46-.97.66-.95,1.41-.43,2.38.18.33.58.74.53,1.13-.11.83-2,.15-2.11,1.43-.12,1.5.56,3.35.81,4.84.09.56.36,1.03.22,1.61-.3,1.25-1.59,2.06-1.69,3.42-.05.68.1,1.79.28,2.45.13.48.67.56.49,1.16-.35,1.18-1.96,2.02-2.16,3.13-.23,1.24,1.02,2.8,1.09,4.08.02.39-.4.61-.52.96-.29.78-.52,1.54-.62,2.37-.11.91.16,1.93.3,2.84.05.31.32.54.29.86-.06.65-.62,1.06-.89,1.61-.25.51-.21,1.43-.21,1.99-.02,2.97,1.49,5.57,1.76,8.45.08.85-.7,1.41-.82,2.18-.14.89.17,1.56.31,2.39l.09.3.06.16.8,3.04-.2.09c-1.83,1.19-1.09,4.61-.43,6.36.23.61.81,1.15.92,1.8.07.44-.38,1.02-.39,1.52l-.1-.09h-.1c-.93-.85-.71-2.04-.82-3.23-.16-1.82-1.45-4.26-3.51-4.27v-.28c-.08-1.23-.68-3.39-1.58-4.32-.44-.45-1.15-.53-1.5-1.09-.79-1.26-.87-2.88-1.33-4.27-.38-1.14-1.18-2.39-1.82-3.41-.41-.66-1.28-.67-1.79-1.25-.66-.75-.69-2.08-1.32-2.93-.65-.87-1.69-1.2-2.35-1.93-.74-.81-1.17-2.81-1.29-3.86h-.3c-1.02-.45-2.51-.61-3.14-1.61-.19-.31,0-.62-.09-.95-.18-.61-.77-1.69-1.24-2.13-.98-.93-2.67-1.15-3.36-2.33-.95-1.61-1.34-3.88-2.62-5.29-.78-.87-1.78.34-2.4-.18-.66-.54-.15-1.91-.88-2.56-.65-.58-1.62-.05-2.3-.41-1-.53-1.09-1.57-1.85-2.23-.51-.45-1.38-.4-1.94-.92-1.11-1.02-.99-2.64-2.02-3.69l-.1.28.1.47-.2.09-2.01-2.75-.2.09-1.33-1.18-4.4-2.9-.2.09.1.09c.06.87.51,1.73.74,2.56.28.98.41,2.11.91,3.02.59,1.08,2.01,1.91,1.87,3.24h-.3l-.4-.38-.1.09v.19c.2.41.33.92.65,1.26.93.98,2.51,1.57,1.97,3.01l-.2-.09-.2.09v.09c.57.85,1.36,1.56,2,2.37.22.29.55.92-.09.95l-.2.19c0,1.7,1.71,2.15,2.54,3.44.22.35-.35.55-.44.84-.09.28.08.67.18.94.38,1.01,1.63,1.58,2.31,2.39.42.5-.2.75-.66.65l.06,1.52,2.23,2.21.63,1.21c-.27,1.17,1.64,2.17,1.9,3.23.19.78-.68,1.39-.38,2.09.44,1.02,1.62,1.87,2.4,2.66.4.4.65.92,1.05,1.3.33.31.87.32,1.12.73.3.51-.49,1.18-.36,1.76.1.42.61.72.89,1.04.51.59.81,1.31,1.36,1.89.61.64,1.53,1.01,2.12,1.65.31.34.24.81.42,1.2.2.43.6.76.89,1.14.74.95,1.47,1.21,1.37,2.47l.2.09v.19c0,1.63,1.36,2.56,2.07,3.89.17.32.09.67.22.99.24.58,1.05,1.78,1.54,2.21.96.83,2.61,1.29,3.31,2.31l.2-.09c1.99.27.25,2.01,1.02,2.85,1.27,1.36,2.85,2.89,4.31,4.06.32.26.75.35,1.06.63.83.75,1.33,1.88,2.26,2.52l-.2.19c-.87-1.67-3.71-2.56-5.53-2.56v.28l-.8.1c-.64-.74-1.81-1.03-2.72-1.38-.32-.12-.65-.38-1.01-.38-.4,0-.72.27-1.11.31-.35.04-1.04-.3-1.36-.46-2-.96-3.58-2.23-5.88-2.67-.59-.11-.92.47-1.5.44-.77-.04-1.61-.91-2.43-1.05-.84-.14-1.79.41-2.52.27-1.06-.21-1.82-1.44-2.92-1.48-.78-.03-1.3,1.04-2.21,1.05-.38,0-.55-.36-.83-.55-.4-.27-1.21-.53-1.69-.61-.96-.16-1.55.73-2.42.68-.5-.03-.96-.45-1.4-.64-1.07-.47-2.19-.88-3.22-1.41l-.2.19c-.35.24-.35,1.07-.8,1.1-.3.02-.56-.37-.77-.53-.72-.57-1.25-.69-1.94-.05-.17.16-.27.31-.32.53h-.3l-2.01-.53-1.81.35-2.62-1.05.1.28-2.72-.66.1.09v.09l.2.38-.1.09h-.1l-1.41-.64-5.13-.03.1.19c1.43.87,3.1,1.96,4.67,2.58.87.34,1.93.32,2.77.77.36.19.28.47-.09.54l.2.09c.76.61,3.87.27,3.62,1.52l.3.1c.71.19,1.69.25,2.3.66.38.26.15.81.63.99.97.36,2.8-.15,2.81,1.2h.3c.77.52,1.57.3,2.41.52.32.08.46.31.2.53v.28c.92.86,2.17.45,3.32.86.28.1.44.35.72.45.66.24,1.5.23,2.1.61.42.26.47.87.92,1.04,1.39.54,3.19.21,4.62.53.58.13.5.81,1.01.93,2.82.65,5.71.64,8.55,1.2.72.14,1.33.75,2.01.99.86.31,1.75.28,2.62.52.84.23,1.62.59,2.52.72,1.37.2,2.94,0,4.31-.11.35-.03.64-.26,1.01-.19.66.11.72.8,1.24.95.7.21,1.48.11,2.2.14.62.03,1.18.35,1.81.37.86.03,1.66-.26,2.52-.3.97-.04,1.74.31,2.71.02l.72.07v.02c-.78.32-1.81.05-2.51.45-.49.28-.3,1.04-.94,1.21-1.09.29-2.32.02-3.4.51-.71.32-2.41,1.03-1.41,1.91l-.3.19c-1.06.06-2.67.48-3.49,1.13-.33.26-.19.72-.42,1.03-.46.64-2.08,1-2.83.77v.19c-1.18,0-3.08.85-3.89,1.65-.37.36.04.99-.46,1.29-.67.39-1.55.28-2.16.89-.41.41-.55,1.51-.95,1.74-.68.39-1.88.17-2.44.68-.46.42.22,1.44-.07,1.99-.24.46-.58.23-1,.29-.36.05-.99.41-1.25.65-.58.54-.09,1.36-.52,1.92-.64.83-2.47.68-3.2,1.48-.48.53.47,1.18.17,1.52-.23.25-.73.11-1.03.22-.68.25-.3,1.15-.21,1.64l-1.1.91-.63,1.15-1.49.79.1.19-.91,1.33.1.19v.1c-1.01.75-1.6,1.93-2.11,3.04h.2c.89-.66,1.97-1.08,2.92-1.65.33-.2.78-.53,1.01-.06h.3c.58-.31,1.1-.98,1.71-1.18.49-.16.79.3,1.31.01.47-.26,1.41-1.17,1.81-.35h.3c.75-.03,1.3-.67,1.91-1.01.4-.22.85.18,1.31.07.6-.14,2.2-1.81,2.31-.68h.3c1.07,0,1.48-.63,2.31-1.17.45-.29.93-.27,1.41-.48.52-.22.98-.64,1.51-.82.6-.2,1.01.41,1.61.18,1.23-.48,2.02-1.77,3.05-2.48.47-.33,1.06.19,1.58-.13,1.24-.75,1.98-1.71,2.99-2.66.26-.24.63-.2.92-.38.6-.38,1-.99,1.55-1.39.43-.31,1.18-.18,1.68-.43,1.23-.6,2.55-1.57,3.61-2.42.88-.71.9-2.08,1.73-2.71v-.28c-.08-.37.19-.72.6-.79.32-.05.57.26.88.15.43-.14.64-.75.87-1.08.33-.47.93-.93,1.17-1.43.31-.65.19-1.42.5-2.08l.1.1v.19c0,5.04-.88,10.51-3.25,15.09-.6,1.16-1.22,2.35-1.99,3.42-.71.98-1.73,2.16-1.11,3.42.56,1.13,1.8,1.38,2.83.67,1.33-.92,2.47-2.7,3.19-4.09.61-1.18,1.28-2.43,1.64-3.7.19-.65.5-1.31.63-1.95.27-.9.45-1.78.67-2.7.71-3.13.81-6.4.81-9.58l1.95,2.41,1.57,1.01h.3c.15,2.07,1.81,2.73,3.32,3.77.65.44,1.07.98,1.81,1.31.47.21,1.05.12,1.49.35.99.52,1.21,1.59,2.53,1.6v.28c1.09.85,1.86,1.97,3.15,2.66.47.25,1.02-.23,1.45.07,1.03.74,1.78,1.87,3.02,2.44.62.29,1.08-.35,1.74-.03.81.39,1.79.65,2.54,1.04,1.03.53,1.53,1.22,2.79,1.22v-.28c.81-.33,1.33.63,2.01.95.59.27,1.13-.2,1.61,0,.86.34,1.3,1.05,2.31,1.05v-.28c.77-.25,1.27.4,1.91.7.48.23.84-.26,1.31-.07.82.33,1,1.16,2.01,1.17l-.1-.19.2-.19,3.82,2.18v-.19l-1.81-3.32-1.01-1.42-1.43-.78-.64-1.25-.93-.94.09-1.49h-.3c-.29-.04-.88-.22-1.17-.31-.62-.2-.07.16.3-1.38-.82-.68-2.67-.58-3.38-1.34-.37-.39-.26-.93-.32-1.48m-25.14-16.57,23.08,15.71l-.39-.79c-.13-.36.49-1,.18-1.69-.19-.41-2.4-1.01-2.88-1.04l-.07-.58c.26-.47-1.1-1.22-1.47-1.48-1.18-1.31-.35,1.12-1.52-1.66l-.9-.54c-.9-.45-2.2-.85-3.17-1.15-1.89-.16-1.95-1.01-3.02-1.66-.56-.27-.43-.4-.81-.77-.42-.23-1.19-.5-1.41-1.11-.14-.4-1.07-.91-1.53-.98l-.62-.56c-.72-1.25-2.74-1.76-1.98-1.52m19.6,15.19,0,.21l.03-.06m0,0h-.1.39m-7.36,1.15-.09-.18.03-.07,0,0-29.28-17.51.2.12-.2-.12-1.78.64,13.59-.27.01-.01"/>
    <path class="b" d="m138,71.69c.32,24.94-17.31,47.74-40.41,56.08-39.89,15.37-87.82-11.61-88.03-56.08C9.78,27.22,57.7.25,97.59,15.62c23.09,8.34,40.73,31.13,40.41,56.08h0Zm-8.5,0c.27-21.46-15.01-40.93-34.89-48.12C60.18,10.32,18.33,33.15,18.07,71.69c.27,38.54,42.12,61.37,76.54,48.12,19.88-7.19,35.16-26.65,34.89-48.12h0Z"/>
    <path class="b" d="m18.46,44.45l32.6,20.03c.22-.26-5.4-4.56-5.18-4.82.12-.15,6.08,3.74,6.2,3.59.28-.34-2.54-2.31-2.26-2.65.1-.12,1.38.9,3.08,1.12,1.73.23-5.25-3.86-5.16-4.03.14-.25,5.86,2.33,4.88,1.41-1.17-1.1-3.1-2.93-2.97-3.11.19-.26,2.38-.48,6.32,2.5.3.23,4.11.29,4.36,0-10.8-6.97-24.56-15.71-35.36-22.69l-6.51,8.65Z"/>
    <path class="b" d="m102.81,87.39c-.26.33-3.38-1.7-3.41-1.64,0,.01.13.11.13.11.53.43,2.5,2.08,1.99,2.59,0,0-2.94-1.03-3.22-1.13,0,0-.01-.01,0-.02.15-.29-3.86-1.87-3.87-1.87-1.97-.68,2.93,3.7,2.92,3.71l28.95,15.62,5.61-9.24-29.02-14.33c-6.44-3.18-8.12-3.64-8.3-3.35-.31.53,3.76,2.92,5.95,4.47,1.16.82,2.46,2.4,3.19,2.86-.28-.02-4.77-1.88-4.94-1.66.03.02.1-.17.13.11,1.73,1.43,2.31,1.73,3.05,2.54.26.28.97,1.06.84,1.23Z"/>
    <circle class="b" cx="91.8" cy="98.09" r=".31"/>
</svg>
